<svg width="312" height="246" viewBox="0 0 312 246" fill="none" xmlns="http://www.w3.org/2000/svg"><path d="M68 234c0 6.627-5.373 12-12 12H24c-13.255 0-24-10.745-24-24V32h68z" fill="url(#a)"/><path d="M312 222c0 13.255-10.745 24-24 24h-32c-6.627 0-12-5.373-12-12V32h68z" fill="url(#b)"/><path d="M304.189 11.902c-11.853-14.095-32.912-15.934-47.037-4.107l-101.153 84.7-101.151-84.7C40.722-4.032 19.664-2.193 7.81 11.902c-11.85 14.096-10.008 35.112 4.117 46.94l132.507 110.957c6.688 5.601 16.442 5.601 23.131 0L300.073 58.842c14.125-11.828 15.968-32.844 4.116-46.94" fill="url(#c)"/><path d="M304.189 11.902c-11.853-14.095-32.912-15.934-47.037-4.107l-101.153 84.7-101.151-84.7C40.722-4.032 19.664-2.193 7.81 11.902c-11.85 14.096-10.008 35.112 4.117 46.94l132.507 110.957c6.688 5.601 16.442 5.601 23.131 0L300.073 58.842c14.125-11.828 15.968-32.844 4.116-46.94" fill="url(#d)"/><defs><linearGradient id="a" x1="34" y1="32" x2="34" y2="246" gradientUnits="userSpaceOnUse"><stop offset=".253" stop-color="#f02f3b"/><stop offset=".5" stop-color="#fd413f"/><stop offset="1" stop-color="#f9403d"/></linearGradient><linearGradient id="b" x1="278" y1="32" x2="278" y2="246" gradientUnits="userSpaceOnUse"><stop offset=".168" stop-color="#42c96d"/><stop offset=".58" stop-color="#08b387"/><stop offset="1" stop-color="#3989f8"/></linearGradient><linearGradient id="c" x1="23.991" y1="39.421" x2="209.832" y2="105.5" gradientUnits="userSpaceOnUse"><stop stop-color="#fd64a0"/><stop offset=".521" stop-color="#fc4243"/><stop offset="1" stop-color="#ff3f3a"/></linearGradient><linearGradient id="d" x1="127.95" y1="77.328" x2="311.874" y2="66.31" gradientUnits="userSpaceOnUse"><stop stop-color="#ff0900" stop-opacity="0"/><stop offset=".938" stop-color="#ffdc09"/></linearGradient></defs></svg>