<svg xmlns="http://www.w3.org/2000/svg" shape-rendering="geometricPrecision" text-rendering="geometricPrecision" image-rendering="optimizeQuality" fill-rule="evenodd" clip-rule="evenodd" viewBox="0 0 512 512"><g fill-rule="nonzero"><path fill="red" d="M255.94 511.99A256 256 0 0 0 492.5 354a255.95 255.95 0 0 0 14.58-147.91A256 256 0 0 0 437.04 75 256.07 256.07 0 0 0 305.97 4.92a256.06 256.06 0 0 0-147.92 14.56 255.93 255.93 0 0 0-114.9 94.29A256 256 0 0 0 0 256c0 33.61 6.61 66.9 19.47 97.96a255.8 255.8 0 0 0 55.47 83.05 256 256 0 0 0 83.04 55.5 255.9 255.9 0 0 0 97.96 19.48"/><path fill="#fff" d="M255.94 121.22c26.68-.03 52.76 7.85 74.96 22.64a134.84 134.84 0 0 1 49.74 60.49 134.8 134.8 0 0 1 7.73 77.92 134.6 134.6 0 0 1-36.88 69.08 134.8 134.8 0 0 1-69.05 36.95 134.83 134.83 0 0 1-77.93-7.68 134.8 134.8 0 0 1-60.52-49.68A134.9 134.9 0 0 1 121.27 256c.06-35.71 14.25-69.95 39.49-95.21a134.95 134.95 0 0 1 95.18-39.57m-49.42 210.43L337.45 256l-130.93-75.59zm49.42-231.05c-30.75 0-60.81 9.12-86.38 26.2a155.44 155.44 0 0 0-57.25 69.78 155.4 155.4 0 0 0-8.84 89.82 155.5 155.5 0 0 0 42.56 79.6 155.47 155.47 0 0 0 79.62 42.53 155.43 155.43 0 0 0 89.82-8.87 155.37 155.37 0 0 0 69.75-57.28A155.4 155.4 0 0 0 411.39 256c0-20.42-4.02-40.63-11.83-59.49a155.5 155.5 0 0 0-33.7-50.42 155.5 155.5 0 0 0-50.44-33.68 155.4 155.4 0 0 0-59.48-11.81"/></g></svg>