<svg width="310" height="226" viewBox="0 0 310 226" fill="none" xmlns="http://www.w3.org/2000/svg"><path d="M28 34C28 15.222 43.222 0 62 0h214c18.778 0 34 15.222 34 34v158c0 18.778-15.222 34-34 34H62c-18.778 0-34-15.222-34-34z" fill="url(#a)"/><path d="M28 34C28 15.222 43.222 0 62 0h214c18.778 0 34 15.222 34 34v158c0 18.778-15.222 34-34 34H62c-18.778 0-34-15.222-34-34z" fill="url(#b)"/><path d="M28 34C28 15.222 43.222 0 62 0h214c18.778 0 34 15.222 34 34v158c0 18.778-15.222 34-34 34H62c-18.778 0-34-15.222-34-34z" fill="url(#c)"/><path d="M239 66c6.075 0 11 4.925 11 11v69h25c6.075 0 11 4.925 11 11s-4.925 11-11 11h-25v23c0 6.075-4.925 11-11 11s-11-4.925-11-11v-23H127c-6.075 0-11-4.925-11-11s4.925-11 11-11h101V77c0-6.075 4.925-11 11-11" fill="#fff"/><path d="M29.402 24.313A34 34 0 0 0 28 34v158c0 3.366.491 6.617 1.402 9.688C12.8 199.443 0 185.218 0 168V58c0-17.218 12.8-31.443 29.402-33.687" fill="#019853"/><defs><linearGradient id="a" x1="28" y1="113" x2="310" y2="113" gradientUnits="userSpaceOnUse"><stop stop-color="#7bc8fe"/><stop offset=".677" stop-color="#11bc5c"/><stop offset="1" stop-color="#0ebb5e"/></linearGradient><linearGradient id="b" x1="170" y1="0" x2="170" y2="226" gradientUnits="userSpaceOnUse"><stop stop-color="#14ba61"/><stop offset=".23" stop-color="#14ba61" stop-opacity="0"/></linearGradient><linearGradient id="c" x1="170" y1="226" x2="170" y2="0" gradientUnits="userSpaceOnUse"><stop stop-color="#14ba61"/><stop offset=".23" stop-color="#14ba61" stop-opacity="0"/></linearGradient></defs></svg>