<svg xmlns="http://www.w3.org/2000/svg" width="454" height="500" viewBox="0 0 454 500"><defs><linearGradient id="d" gradientUnits="userSpaceOnUse" x1="225.25" y1="128.63" x2="212.19" y2="51.22" gradientTransform="matrix(1 0 0 -1 0 503.48)"><stop offset="0" style="stop-color:#330072;stop-opacity:.4"/><stop offset="1" style="stop-color:#7611f0;stop-opacity:0"/></linearGradient><linearGradient id="e" gradientUnits="userSpaceOnUse" x1="227" y1="117.38" x2="227" y2="2.96" gradientTransform="matrix(1 0 0 -1 0 503.48)"><stop offset="0" style="stop-color:#9136f2;stop-opacity:0"/><stop offset=".84" style="stop-color:#b76aff;stop-opacity:.14902"/></linearGradient><linearGradient id="f" gradientUnits="userSpaceOnUse" x1="123.94" y1="110.91" x2=".11" y2="109.79" gradientTransform="matrix(1 0 0 -1 0 503.48)"><stop offset="0" style="stop-color:#9136f2;stop-opacity:0"/><stop offset=".84" style="stop-color:#b76aff;stop-opacity:.301961"/></linearGradient><linearGradient id="g" gradientUnits="userSpaceOnUse" x1="256.51" y1="50.34" x2="442.07" y2="-103.15" gradientTransform="matrix(1 0 0 -1 0 503.48)"><stop offset="0" style="stop-color:#9136f2;stop-opacity:0"/><stop offset=".84" style="stop-color:#b76aff;stop-opacity:.2"/></linearGradient><linearGradient id="h" gradientUnits="userSpaceOnUse" x1="123.82" y1="270.76" x2="-.01" y2="270.76" gradientTransform="matrix(1 0 0 -1 0 503.48)"><stop offset="0" style="stop-color:#bc80ff;stop-opacity:0"/><stop offset=".84" style="stop-color:#ecb4ff;stop-opacity:1"/></linearGradient><linearGradient id="i" gradientUnits="userSpaceOnUse" x1="303.59" y1="270.76" x2="454" y2="270.76" gradientTransform="matrix(1 0 0 -1 0 503.48)"><stop offset="0" style="stop-color:#bc7fff;stop-opacity:0"/><stop offset=".84" style="stop-color:#ecb4ff;stop-opacity:.8"/></linearGradient><linearGradient id="k" gradientUnits="userSpaceOnUse" x1="231.96" y1="297.77" x2="226.19" y2="158.17" gradientTransform="matrix(1 0 0 -1 0 503.48)"><stop offset="0" style="stop-color:#6200d5;stop-opacity:.4"/><stop offset="1" style="stop-color:#3e008d;stop-opacity:0"/></linearGradient><linearGradient id="l" gradientUnits="userSpaceOnUse" x1="330.2" y1="177.81" x2="454.04" y2="177.81" gradientTransform="matrix(1 0 0 -1 0 503.48)"><stop offset="0" style="stop-color:#9b54fd;stop-opacity:0"/><stop offset=".84" style="stop-color:#ecb4ff;stop-opacity:.4"/></linearGradient><linearGradient id="m" gradientUnits="userSpaceOnUse" x1="123.82" y1="182.36" x2="-.01" y2="182.36" gradientTransform="matrix(1 0 0 -1 0 503.48)"><stop offset="0" style="stop-color:#944ef6;stop-opacity:0"/><stop offset=".84" style="stop-color:#ecb4ff;stop-opacity:.6"/></linearGradient><radialGradient id="a" gradientUnits="userSpaceOnUse" cx="-750.94" cy="816.14" fx="-750.94" fy="816.14" r=".91" gradientTransform="matrix(-409.12556 211.3464 246.62825 476.37367 -508259.094 -230280.484)"><stop offset=".62" style="stop-color:#974cff;stop-opacity:.898039"/><stop offset="1" style="stop-color:#5000b0;stop-opacity:.898039"/></radialGradient><radialGradient id="b" gradientUnits="userSpaceOnUse" cx="-755.52" cy="805.62" fx="-755.52" fy="805.62" r=".91" gradientTransform="rotate(156.48 -228770.722 -329494.106)scale(406.32 -897.5)skewX(-.1)"><stop offset=".15" style="stop-color:#de91ff;stop-opacity:.6"/><stop offset=".68" style="stop-color:#d373fc;stop-opacity:0"/></radialGradient><radialGradient id="c" gradientUnits="userSpaceOnUse" cx="-740.71" cy="815.67" fx="-740.71" fy="815.67" r=".91" gradientTransform="rotate(127.18 -226912.26 -217838.394)scale(256.81 -650.28003)skewX(-.14)"><stop offset="0" style="stop-color:#ffc7a3;stop-opacity:.4"/><stop offset=".83" style="stop-color:#de67fd;stop-opacity:0"/></radialGradient><radialGradient id="j" gradientUnits="userSpaceOnUse" cx="-735.51" cy="817.83" fx="-735.51" fy="817.83" r=".91" gradientTransform="matrix(-163.3082 252.82287 505.16125 325.61553 -532860.438 -80484.813)"><stop offset="0" style="stop-color:#ffc7a3;stop-opacity:1"/><stop offset=".83" style="stop-color:#de67fd;stop-opacity:0"/></radialGradient></defs><path style="stroke:none;fill-rule:nonzero;fill:#7611f0;fill-opacity:1" d="M384.29.77c27.23-4.81 53.57 13.27 58.831 40.402L445.27 52.3c5.25 27.12-12.579 53.02-39.81 57.828L35.59 175.422c-12.711 2.238-25-6.211-27.45-18.863l-7.218-37.32C-4.328 92.108 13.5 66.23 40.73 61.428Zm0 0"/><path style="stroke:none;fill-rule:nonzero;fill:url(#a)" d="M384.29.77c27.23-4.81 53.57 13.27 58.831 40.402L445.27 52.3c5.25 27.12-12.579 53.02-39.81 57.828L35.59 175.422c-12.711 2.238-25-6.211-27.45-18.863l-7.218-37.32C-4.328 92.108 13.5 66.23 40.73 61.428Zm0 0"/><path style="stroke:none;fill-rule:nonzero;fill:url(#b)" d="M384.29.77c27.23-4.81 53.57 13.27 58.831 40.402L445.27 52.3c5.25 27.12-12.579 53.02-39.81 57.828L35.59 175.422c-12.711 2.238-25-6.211-27.45-18.863l-7.218-37.32C-4.328 92.108 13.5 66.23 40.73 61.428Zm0 0"/><path style="stroke:none;fill-rule:nonzero;fill:url(#c)" d="M384.29.77c27.23-4.81 53.57 13.27 58.831 40.402L445.27 52.3c5.25 27.12-12.579 53.02-39.81 57.828L35.59 175.422c-12.711 2.238-25-6.211-27.45-18.863l-7.218-37.32C-4.328 92.108 13.5 66.23 40.73 61.428Zm0 0"/><path style="stroke:none;fill-rule:nonzero;fill:#7611f0;fill-opacity:1" d="M0 439.969C0 473.12 26.898 500 60.09 500h333.808c33.192 0 60.09-26.879 60.09-60.031V417.5c0-33.148-26.898-60.031-60.09-60.031H60.102C26.91 357.469 0 330.602 0 297.44v-13.63Zm0 0"/><path style="stroke:none;fill-rule:nonzero;fill:#a966ff;fill-opacity:.2" d="M0 439.969C0 473.12 26.898 500 60.09 500h333.808c33.192 0 60.09-26.879 60.09-60.031V417.5c0-33.148-26.898-60.031-60.09-60.031H60.102C26.91 357.469 0 330.602 0 297.44v-13.63Zm0 0"/><path style="stroke:none;fill-rule:nonzero;fill:url(#d)" d="M0 439.969C0 473.12 26.898 500 60.09 500h333.808c33.192 0 60.09-26.879 60.09-60.031V417.5c0-33.148-26.898-60.031-60.09-60.031H60.102C26.91 357.469 0 330.602 0 297.44v-13.63Zm0 0"/><path style="stroke:none;fill-rule:nonzero;fill:url(#e)" d="M0 439.969C0 473.12 26.898 500 60.09 500h333.808c33.192 0 60.09-26.879 60.09-60.031V417.5c0-33.148-26.898-60.031-60.09-60.031H60.102C26.91 357.469 0 330.602 0 297.44v-13.63Zm0 0"/><path style="stroke:none;fill-rule:nonzero;fill:url(#f)" d="M0 439.969C0 473.12 26.898 500 60.09 500h333.808c33.192 0 60.09-26.879 60.09-60.031V417.5c0-33.148-26.898-60.031-60.09-60.031H60.102C26.91 357.469 0 330.602 0 297.44v-13.63Zm0 0"/><path style="stroke:none;fill-rule:nonzero;fill:url(#g)" d="M0 439.969C0 473.12 26.898 500 60.09 500h333.808c33.192 0 60.09-26.879 60.09-60.031V417.5c0-33.148-26.898-60.031-60.09-60.031H60.102C26.91 357.469 0 330.602 0 297.44v-13.63Zm0 0"/><path style="stroke:none;fill-rule:nonzero;fill:#bc7fff;fill-opacity:1" d="M0 223.11c0 33.152 26.898 60.03 60.09 60.03h333.808c33.192 0 60.09 26.88 60.09 60.032v15.797-139.11c0-33.148-26.898-60.03-60.09-60.03H53.422C23.922 159.828 0 135.94 0 106.468Zm0 0"/><path style="stroke:none;fill-rule:nonzero;fill:url(#h)" d="M0 223.11c0 33.152 26.898 60.03 60.09 60.03h333.808c33.192 0 60.09 26.88 60.09 60.032v15.797-139.11c0-33.148-26.898-60.03-60.09-60.03H53.422C23.922 159.828 0 135.94 0 106.468Zm0 0"/><path style="stroke:none;fill-rule:nonzero;fill:url(#i)" d="M0 223.11c0 33.152 26.898 60.03 60.09 60.03h333.808c33.192 0 60.09 26.88 60.09 60.032v15.797-139.11c0-33.148-26.898-60.03-60.09-60.03H53.422C23.922 159.828 0 135.94 0 106.468Zm0 0"/><path style="stroke:none;fill-rule:nonzero;fill:url(#j)" d="M0 223.11c0 33.152 26.898 60.03 60.09 60.03h333.808c33.192 0 60.09 26.88 60.09 60.032v15.797-139.11c0-33.148-26.898-60.03-60.09-60.03H53.422C23.922 159.828 0 135.94 0 106.468Zm0 0"/><path style="stroke:none;fill-rule:nonzero;fill:#974cff;fill-opacity:1" d="M0 326.5c0 33.148 26.898 60.031 60.09 60.031h337.832c30.969 0 56.066 25.078 56.066 56.02V333.25c0-33.148-26.898-60.02-60.09-60.02H60.102C26.91 273.23 0 246.352 0 213.2v-13.51Zm0 0"/><path style="stroke:none;fill-rule:nonzero;fill:#a966ff;fill-opacity:.34902" d="M0 326.5c0 33.148 26.898 60.031 60.09 60.031h337.832c30.969 0 56.066 25.078 56.066 56.02V333.25c0-33.148-26.898-60.02-60.09-60.02H60.102C26.91 273.23 0 246.352 0 213.2v-13.51Zm0 0"/><path style="stroke:none;fill-rule:nonzero;fill:url(#k)" d="M0 326.5c0 33.148 26.898 60.031 60.09 60.031h337.832c30.969 0 56.066 25.078 56.066 56.02V333.25c0-33.148-26.898-60.02-60.09-60.02H60.102C26.91 273.23 0 246.352 0 213.2v-13.51Zm0 0"/><path style="stroke:none;fill-rule:nonzero;fill:url(#l)" d="M0 326.5c0 33.148 26.898 60.031 60.09 60.031h337.832c30.969 0 56.066 25.078 56.066 56.02V333.25c0-33.148-26.898-60.02-60.09-60.02H60.102C26.91 273.23 0 246.352 0 213.2v-13.51Zm0 0"/><path style="stroke:none;fill-rule:nonzero;fill:url(#m)" d="M0 326.5c0 33.148 26.898 60.031 60.09 60.031h337.832c30.969 0 56.066 25.078 56.066 56.02V333.25c0-33.148-26.898-60.02-60.09-60.02H60.102C26.91 273.23 0 246.352 0 213.2v-13.51Zm0 0"/></svg>