<svg xmlns="http://www.w3.org/2000/svg" viewBox="35.98 139.2 648.03 430.85"><defs><radialGradient id="a" gradientUnits="userSpaceOnUse" cx="0" cy="0" fx="0" fy="0" r="1" gradientTransform="rotate(50.153 -220.11 166.388)scale(204.2385 338.7675)"><stop offset="0" style="stop-color:#4894fe;stop-opacity:1"/><stop offset=".695" style="stop-color:#0934b3;stop-opacity:1"/></radialGradient><radialGradient id="b" gradientUnits="userSpaceOnUse" cx="0" cy="0" fx="0" fy="0" r="1" gradientTransform="rotate(130.923 299.935 133.077)scale(878.24553 650.787)"><stop offset=".165" style="stop-color:#23c0fe;stop-opacity:1"/><stop offset=".534" style="stop-color:#1c91ff;stop-opacity:1"/></radialGradient><radialGradient id="c" gradientUnits="userSpaceOnUse" cx="0" cy="0" fx="0" fy="0" r="1" gradientTransform="rotate(220.014 134.364 87.21)scale(178.5555 408.75149)"><stop offset="0" style="stop-color:#fff;stop-opacity:.4"/><stop offset=".661" style="stop-color:#adc0ff;stop-opacity:0"/></radialGradient><radialGradient id="d" gradientUnits="userSpaceOnUse" cx="0" cy="0" fx="0" fy="0" r="1" gradientTransform="rotate(220.236 270.358 156.97)scale(201.258 305.6535)"><stop offset="0" style="stop-color:#033acc;stop-opacity:1"/><stop offset="1" style="stop-color:#368eff;stop-opacity:0"/></radialGradient><radialGradient id="e" gradientUnits="userSpaceOnUse" cx="0" cy="0" fx="0" fy="0" r="1" gradientTransform="rotate(66.571 -10.959 191.792)scale(441.60599 476.739)"><stop offset=".593" style="stop-color:#3464e3;stop-opacity:0"/><stop offset="1" style="stop-color:#033acc;stop-opacity:.6"/></radialGradient><radialGradient id="f" gradientUnits="userSpaceOnUse" cx="0" cy="0" fx="0" fy="0" r="1" gradientTransform="rotate(135 286.76 141.91)scale(649.59 1017.68852)"><stop offset="0" style="stop-color:#4bfde8;stop-opacity:.898039"/><stop offset=".544" style="stop-color:#4bfde8;stop-opacity:0"/></radialGradient><radialGradient id="h" gradientUnits="userSpaceOnUse" cx="0" cy="0" fx="0" fy="0" r="1" gradientTransform="rotate(21.632 -656.352 929.652)scale(294.354 557.4075)"><stop offset="0" style="stop-color:#fff;stop-opacity:.4"/><stop offset=".785" style="stop-color:#fff;stop-opacity:0"/></radialGradient><radialGradient id="i" gradientUnits="userSpaceOnUse" cx="0" cy="0" fx="0" fy="0" r="1" gradientTransform="rotate(139.243 291.105 250.031)scale(403.551 404.919)"><stop offset="0" style="stop-color:#4bfde8;stop-opacity:.898039"/><stop offset=".585" style="stop-color:#4bfde8;stop-opacity:0"/></radialGradient><linearGradient id="g" gradientUnits="userSpaceOnUse" x1="30" y1="37.982" x2="30" y2="18.398" gradientTransform="scale(15)"><stop offset="0" style="stop-color:#0086ff;stop-opacity:1"/><stop offset=".49" style="stop-color:#0bf;stop-opacity:1"/></linearGradient></defs><path style="stroke:none;fill-rule:nonzero;fill:url(#a)" d="M215.078 205.09c-99.066.004-173.121 81.098-178.695 171.437 3.453 19.465 14.793 57.903 32.558 55.93 22.204-2.469 78.125 0 125.825-86.352 34.843-63.078 106.52-141.02 20.312-141.015m0 0"/><path style="stroke:none;fill-rule:nonzero;fill:url(#b)" d="M192.172 238.813c-33.3 52.722-78.129 128.273-93.258 152.046-17.984 28.262-65.61 16.254-61.664-24.25a181 181 0 0 0-.895 9.938c-6.511 105.387 77.043 192.906 181.02 192.906 114.594 0 387.895-142.781 360.234-285.844-29.152-84.09-111.086-144.406-203.945-144.406-92.855 0-152.367 53.496-181.492 99.61m0 0"/><path style="stroke:none;fill-rule:nonzero;fill:url(#c)" d="M192.172 238.813c-33.3 52.722-78.129 128.273-93.258 152.046-17.984 28.262-65.61 16.254-61.664-24.25a181 181 0 0 0-.895 9.938c-6.511 105.387 77.043 192.906 181.02 192.906 114.594 0 387.895-142.781 360.234-285.844-29.152-84.09-111.086-144.406-203.945-144.406-92.855 0-152.367 53.496-181.492 99.61m0 0"/><path style="stroke:none;fill-rule:nonzero;fill:url(#d)" d="M192.172 238.813c-33.3 52.722-78.129 128.273-93.258 152.046-17.984 28.262-65.61 16.254-61.664-24.25a181 181 0 0 0-.895 9.938c-6.511 105.387 77.043 192.906 181.02 192.906 114.594 0 387.895-142.781 360.234-285.844-29.152-84.09-111.086-144.406-203.945-144.406-92.855 0-152.367 53.496-181.492 99.61m0 0"/><path style="stroke:none;fill-rule:nonzero;fill:url(#e)" d="M192.172 238.813c-33.3 52.722-78.129 128.273-93.258 152.046-17.984 28.262-65.61 16.254-61.664-24.25a181 181 0 0 0-.895 9.938c-6.511 105.387 77.043 192.906 181.02 192.906 114.594 0 387.895-142.781 360.234-285.844-29.152-84.09-111.086-144.406-203.945-144.406-92.855 0-152.367 53.496-181.492 99.61m0 0"/><path style="stroke:none;fill-rule:nonzero;fill:url(#f)" d="M192.172 238.813c-33.3 52.722-78.129 128.273-93.258 152.046-17.984 28.262-65.61 16.254-61.664-24.25a181 181 0 0 0-.895 9.938c-6.511 105.387 77.043 192.906 181.02 192.906 114.594 0 387.895-142.781 360.234-285.844-29.152-84.09-111.086-144.406-203.945-144.406-92.855 0-152.367 53.496-181.492 99.61m0 0"/><path style="stroke:none;fill-rule:nonzero;fill:url(#g)" d="M215.7 569.496s273.62.54 320.034.54C619.961 570.035 684 501.272 684 421.03s-65.328-148.586-148.266-148.586c-82.941 0-130.707 62.047-166.582 129.782-42.035 79.367-95.664 166.32-153.453 167.27m0 0"/><path style="stroke:none;fill-rule:nonzero;fill:url(#h)" d="M215.7 569.496s273.62.54 320.034.54C619.961 570.035 684 501.272 684 421.03s-65.328-148.586-148.266-148.586c-82.941 0-130.707 62.047-166.582 129.782-42.035 79.367-95.664 166.32-153.453 167.27m0 0"/><path style="stroke:none;fill-rule:nonzero;fill:url(#i)" d="M215.7 569.496s273.62.54 320.034.54C619.961 570.035 684 501.272 684 421.03s-65.328-148.586-148.266-148.586c-82.941 0-130.707 62.047-166.582 129.782-42.035 79.367-95.664 166.32-153.453 167.27m0 0"/></svg>