<svg xmlns="http://www.w3.org/2000/svg" viewBox="60 90 525 540"><defs><radialGradient id="a" gradientUnits="userSpaceOnUse" cx="0" cy="0" fx="0" fy="0" r="1" gradientTransform="matrix(713.5995 0 0 300.7215 571.881 630)"><stop offset=".159" style="stop-color:#a931d8;stop-opacity:1"/><stop offset=".566" style="stop-color:#6e1996;stop-opacity:1"/></radialGradient><radialGradient id="d" gradientUnits="userSpaceOnUse" cx="0" cy="0" fx="0" fy="0" r="1" gradientTransform="rotate(121.483 291.046 204.413)scale(433.1535 761.63698)"><stop offset="0" style="stop-color:#ffc7a3;stop-opacity:1"/><stop offset=".831" style="stop-color:#de67fd;stop-opacity:0"/></radialGradient><radialGradient id="e" gradientUnits="userSpaceOnUse" cx="0" cy="0" fx="0" fy="0" r="1" gradientTransform="rotate(45 -386.452 244.926)scale(339.411)"><stop offset=".072" style="stop-color:#ac13eb;stop-opacity:1"/><stop offset=".879" style="stop-color:#580087;stop-opacity:1"/></radialGradient><radialGradient id="f" gradientUnits="userSpaceOnUse" cx="0" cy="0" fx="0" fy="0" r="1" gradientTransform="matrix(0 168 -193.5 0 180 489)"><stop offset=".585" style="stop-color:#841fb0;stop-opacity:0"/><stop offset=".969" style="stop-color:#d373fc;stop-opacity:.8"/></radialGradient><linearGradient id="b" gradientUnits="userSpaceOnUse" x1="45.284" y1="22.752" x2="28.013" y2="14.022" gradientTransform="scale(15)"><stop offset=".217" style="stop-color:#ca59f7;stop-opacity:1"/><stop offset=".888" style="stop-color:#691a90;stop-opacity:1"/></linearGradient><linearGradient id="c" gradientUnits="userSpaceOnUse" x1="40.327" y1="13.764" x2="9.007" y2="13.764" gradientTransform="scale(15)"><stop offset=".807" style="stop-color:#de66ff;stop-opacity:1"/><stop offset="1" style="stop-color:#fcb1ff;stop-opacity:1"/></linearGradient></defs><path style="stroke:none;fill-rule:nonzero;fill:url(#a)" d="M135 503.18c0-54.223 43.957-98.18 98.184-98.18H585v175.898c0 27.118-21.984 49.098-49.102 49.09l-308.875-.074C176.2 629.902 135 588.7 135 537.871Zm0 0"/><path style="stroke:none;fill-rule:nonzero;fill:url(#b)" d="m374.992 217.5 210-7.5v190.91c0 27.113-21.976 49.09-49.09 49.09h-160.91Zm0 0"/><path style="stroke:none;fill-rule:nonzero;fill:url(#c)" d="M135.078 179.98c.008-49.699 40.3-89.98 90-89.98H532.5c28.996 0 52.5 23.504 52.5 52.5v75c0 28.996-23.504 52.5-52.5 52.5h-45c-28.996 0-52.5 23.504-52.5 52.5v75c0 28.996-23.504 52.5-52.5 52.5H225c-49.703 0-90 40.293-90 90Zm0 0"/><path style="stroke:none;fill-rule:nonzero;fill:url(#d)" d="M135.078 179.98c.008-49.699 40.3-89.98 90-89.98H532.5c28.996 0 52.5 23.504 52.5 52.5v75c0 28.996-23.504 52.5-52.5 52.5h-45c-28.996 0-52.5 23.504-52.5 52.5v75c0 28.996-23.504 52.5-52.5 52.5H225c-49.703 0-90 40.293-90 90Zm0 0"/><path style="stroke:none;fill-rule:nonzero;fill:url(#e)" d="M108.75 345h142.5c26.926 0 48.75 21.824 48.75 48.75v142.5c0 26.926-21.824 48.75-48.75 48.75h-142.5C81.824 585 60 563.176 60 536.25v-142.5C60 366.824 81.824 345 108.75 345m0 0"/><path style="stroke:none;fill-rule:nonzero;fill:url(#f)" d="M108.75 345h142.5c26.926 0 48.75 21.824 48.75 48.75v142.5c0 26.926-21.824 48.75-48.75 48.75h-142.5C81.824 585 60 563.176 60 536.25v-142.5C60 366.824 81.824 345 108.75 345m0 0"/><path style="stroke:none;fill-rule:nonzero;fill:#fff;fill-opacity:1" d="M241.656 533.57h-31.164L154 448.934a276 276 0 0 1-4.016-6.598q-1.629-2.871-2.484-4.781h-.383c.125 2.422.223 5.48.285 9.18.063 3.699.098 8.03.098 13.003v73.832h-29.156V396.43h33.265L206 478.39a168 168 0 0 1 3.348 5.641 83 83 0 0 1 3.152 5.547h.383q-.193-2.392-.285-7.074-.1-4.782-.098-11.766V396.43h29.156Zm0 0"/></svg>