<svg xmlns="http://www.w3.org/2000/svg" fill="none" viewBox="0 0 512 512"><g clip-path="url(#a)"><g clip-path="url(#b)"><path fill="url(#c)" fill-rule="evenodd" d="M440 415.811V247.996H240v8c-106.039 0-192 85.961-192 192v32c0 17.673 14.327 32 32 32h160c80.929 0 153.088-37.553 200-96.185" clip-rule="evenodd"/><path fill="url(#d)" fill-opacity=".5" fill-rule="evenodd" d="M440 415.811V247.996H240v8c-106.039 0-192 85.961-192 192v32c0 17.673 14.327 32 32 32h160c80.929 0 153.088-37.553 200-96.185" clip-rule="evenodd"/><path fill="url(#e)" d="M240-.004H80c-17.673 0-32 14.327-32 32v32c0 106.039 85.961 192 192 192h72c70.692 0 128 57.308 128 128 0 13.657-2.139 26.814-6.1 39.155 38.699-44.85 62.1-103.269 62.1-167.155 0-141.385-114.615-256-256-256"/><path fill="url(#f)" fill-opacity=".5" d="M240-.004H80c-17.673 0-32 14.327-32 32v32c0 106.039 85.961 192 192 192h72c70.692 0 128 57.308 128 128 0 13.657-2.139 26.814-6.1 39.155 38.699-44.85 62.1-103.269 62.1-167.155 0-141.385-114.615-256-256-256"/></g></g><defs><radialGradient id="c" cx="0" cy="0" r="1" gradientTransform="rotate(-39.174 769.69 197.887)scale(417.938 512.42)" gradientUnits="userSpaceOnUse"><stop offset=".045" stop-color="#ad7dff"/><stop offset=".328" stop-color="#6864f6"/><stop offset=".571" stop-color="#5750e2"/><stop offset=".809" stop-color="#3e36b1"/><stop offset="1" stop-color="#261d82"/></radialGradient><radialGradient id="d" cx="0" cy="0" r="1" gradientTransform="rotate(199.696 281.777 209.998)scale(481.906)" gradientUnits="userSpaceOnUse"><stop offset=".706" stop-color="#ac80ff" stop-opacity="0"/><stop offset=".921" stop-color="#bd96ff"/></radialGradient><radialGradient id="e" cx="0" cy="0" r="1" gradientTransform="rotate(38.202 1.73 77.015)scale(570.097 471.102)" gradientUnits="userSpaceOnUse"><stop stop-color="#ffc470"/><stop offset=".251" stop-color="#ff835c"/><stop offset=".584" stop-color="#f24a9d"/><stop offset=".871" stop-color="#b339f0"/><stop offset="1" stop-color="#c354ff"/></radialGradient><radialGradient id="f" cx="0" cy="0" r="1" gradientTransform="rotate(214.88 173.489 146.922)scale(445.335 422.903)" gradientUnits="userSpaceOnUse"><stop offset=".709" stop-color="#ffb357" stop-opacity="0"/><stop offset=".942" stop-color="#ffb357"/></radialGradient><clipPath id="a"><path fill="#fff" d="M0 0h512v512H0z"/></clipPath><clipPath id="b"><path fill="#fff" d="M0 0h512v512H0z"/></clipPath></defs></svg>