<svg xmlns="http://www.w3.org/2000/svg" width="486" height="500" viewBox="0 0 486 500"><defs><radialGradient id="a" gradientUnits="userSpaceOnUse" cx="-746.66" cy="781.44" fx="-746.66" fy="781.44" r="13.89" gradientTransform="rotate(-133.54 -9646.6 -18892.942)scale(41.12 -31.9)skewX(-.01)"><stop offset=".06" style="stop-color:#379539;stop-opacity:1"/><stop offset=".42" style="stop-color:#297c2d;stop-opacity:1"/><stop offset=".7" style="stop-color:#15561c;stop-opacity:1"/></radialGradient><radialGradient id="b" gradientUnits="userSpaceOnUse" cx="-773.19" cy="771.25" fx="-773.19" fy="771.25" r="13.89" gradientTransform="matrix(-11.97612 -11.58137 -8.95853 9.26806 -2155.12 -15858.88)"><stop offset="0" style="stop-color:#073b10;stop-opacity:.698039"/><stop offset=".99" style="stop-color:#084a13;stop-opacity:0"/></radialGradient><radialGradient id="f" gradientUnits="userSpaceOnUse" cx="-824.11" cy="810.99" fx="-824.11" fy="810.99" r="13.89" gradientTransform="matrix(-9.02 0 0 19.09 -7120.4 -15378.69)"><stop offset=".29" style="stop-color:#4eb43b;stop-opacity:1"/><stop offset="1" style="stop-color:#72cc61;stop-opacity:0"/></radialGradient><radialGradient id="h" gradientUnits="userSpaceOnUse" cx="-769.14" cy="808.9" fx="-769.14" fy="808.9" r="13.89" gradientTransform="rotate(218.97 -11176.158 5816.417)scale(21.75 21.69)skewY(.01)"><stop offset=".44" style="stop-color:#79e96d;stop-opacity:1"/><stop offset="1" style="stop-color:#d0eb76;stop-opacity:1"/></radialGradient><radialGradient id="i" gradientUnits="userSpaceOnUse" cx="-675.64" cy="793.28" fx="-675.64" fy="793.28" r="13.89" gradientTransform="rotate(45.01 -69592.98 -6962.307)scale(22.62 -64.41)skewX(-.04)"><stop offset="0" style="stop-color:#20a85e;stop-opacity:1"/><stop offset=".94" style="stop-color:#09442a;stop-opacity:1"/></radialGradient><radialGradient id="j" gradientUnits="userSpaceOnUse" cx="-657.62" cy="853.99" fx="-657.62" fy="853.99" r="13.89" gradientTransform="matrix(0 11.2 12.9 0 -10902.85 7734.8)"><stop offset=".58" style="stop-color:#33a662;stop-opacity:0"/><stop offset=".97" style="stop-color:#98f0b0;stop-opacity:.301961"/></radialGradient><linearGradient id="c" gradientUnits="userSpaceOnUse" x1="69.43" y1="210.33" x2="260.84" y2="210.33" gradientTransform="matrix(1 0 0 -1 0 502)"><stop offset="0" style="stop-color:#52d17c;stop-opacity:1"/><stop offset=".33" style="stop-color:#4aa647;stop-opacity:1"/></linearGradient><linearGradient id="d" gradientUnits="userSpaceOnUse" x1="194.4" y1="335.33" x2="194.4" y2="161.68" gradientTransform="matrix(1 0 0 -1 0 502)"><stop offset="0" style="stop-color:#29852f;stop-opacity:.301961"/><stop offset=".5" style="stop-color:#4aa647;stop-opacity:0"/></linearGradient><linearGradient id="e" gradientUnits="userSpaceOnUse" x1="80.49" y1="297.22" x2="311.45" y2="497.54" gradientTransform="matrix(1 0 0 -1 0 502)"><stop offset="0" style="stop-color:#66d052;stop-opacity:1"/><stop offset="1" style="stop-color:#85e972;stop-opacity:1"/></linearGradient><linearGradient id="g" gradientUnits="userSpaceOnUse" x1="182.11" y1="377" x2="69.43" y2="377" gradientTransform="matrix(1 0 0 -1 0 502)"><stop offset=".18" style="stop-color:#c0e075;stop-opacity:0"/><stop offset="1" style="stop-color:#d1eb95;stop-opacity:1"/></linearGradient></defs><path style="stroke:none;fill-rule:nonzero;fill:url(#a)" d="M69.43 159.719c0-34.52 27.98-62.5 62.492-62.5h354.09v361.11c0 23.01-18.653 41.671-41.66 41.671H152.738c-46.008 0-83.308-37.309-83.308-83.328Zm0 0"/><path style="stroke:none;fill-rule:nonzero;fill:url(#b)" d="M69.43 159.719c0-34.52 27.98-62.5 62.492-62.5h354.09v361.11c0 23.01-18.653 41.671-41.66 41.671H152.738c-46.008 0-83.308-37.309-83.308-83.328Zm0 0"/><path style="stroke:none;fill-rule:nonzero;fill:url(#c)" d="M69.43 229.172c0-34.524 27.98-62.5 62.492-62.5h187.457c-23.008 0-41.66 18.656-41.66 41.668v83.332c0 23.008-18.649 41.668-41.66 41.668H152.75c-46.012 0-83.309 37.308-83.309 83.332v-187.5Zm0 0"/><path style="stroke:none;fill-rule:nonzero;fill:url(#d)" d="M69.43 229.172c0-34.524 27.98-62.5 62.492-62.5h187.457c-23.008 0-41.66 18.656-41.66 41.668v83.332c0 23.008-18.649 41.668-41.66 41.668H152.75c-46.012 0-83.309 37.308-83.309 83.332v-187.5Zm0 0"/><path style="stroke:none;fill-rule:nonzero;fill:url(#e)" d="M69.43 83.328C69.43 37.308 106.73 0 152.738 0h166.633v166.672H152.738c-46.008 0-83.308 37.308-83.308 83.328Zm0 0"/><path style="stroke:none;fill-rule:nonzero;fill:url(#f)" d="M69.43 83.328C69.43 37.308 106.73 0 152.738 0h166.633v166.672H152.738c-46.008 0-83.308 37.308-83.308 83.328Zm0 0"/><path style="stroke:none;fill-rule:nonzero;fill:url(#g)" d="M69.43 83.328C69.43 37.308 106.73 0 152.738 0h166.633v166.672H152.738c-46.008 0-83.308 37.308-83.308 83.328Zm0 0"/><path style="stroke:none;fill-rule:nonzero;fill:url(#h)" d="M319.371 0H444.34C467.348 0 486 18.652 486 41.66v83.352c0 23.008-18.652 41.66-41.66 41.66H319.37c-23.008 0-41.66-18.652-41.66-41.66V41.66C277.71 18.652 296.363 0 319.37 0m0 0"/><path style="stroke:none;fill-rule:nonzero;fill:url(#i)" d="M45.129 236.11h131.91c24.926 0 45.133 20.206 45.133 45.128V413.2c0 24.926-20.207 45.13-45.133 45.13H45.13C20.207 458.328 0 438.124 0 413.198V281.24c0-24.923 20.207-45.13 45.129-45.13m0 0"/><path style="stroke:none;fill-rule:nonzero;fill:url(#j)" d="M45.129 236.11h131.91c24.926 0 45.133 20.206 45.133 45.128V413.2c0 24.926-20.207 45.13-45.133 45.13H45.13C20.207 458.328 0 438.124 0 413.198V281.24c0-24.923 20.207-45.13 45.129-45.13m0 0"/><path style="stroke:none;fill-rule:nonzero;fill:#fff;fill-opacity:1" d="M169.48 410.71h-34.25l-21.5-40.472q-1.154-2.126-1.77-3.367c-.35-.883-.741-1.89-1.151-3.012h-.348q-.797 2.132-1.5 3.45c-.473.89-1.031 1.98-1.68 3.28l-22.3 40.11H52.68l38.761-63.578L55.34 283.72h33.8l19.11 36.133q1.156 2.215 1.95 3.898.885 1.588 1.769 3.809h.351c.82-1.707 1.47-3.07 1.95-4.07.53-1 1.242-2.329 2.12-3.977l19.82-35.774h32.212l-36.633 62.434 37.7 64.547Zm0 0"/></svg>