<svg width="48" height="48" viewBox="0 0 48 48" fill="none" xmlns="http://www.w3.org/2000/svg"><path d="M24 4C12.954 4 4 12.954 4 24v20h20c11.046 0 20-8.954 20-20S35.046 4 24 4m0 13a7 7 0 1 1 0 14h-7v-7a7 7 0 0 1 7-7" fill="url(#a)"/><path d="M44 24c0 11.046-8.954 20-20 20H4c0-7.18 5.82-13 13-13h7a7 7 0 0 0 7-7z" fill="url(#b)"/><path d="M44 24c0 11.046-8.954 20-20 20H4c0-7.18 5.82-13 13-13h7a7 7 0 0 0 7-7z" fill="url(#c)" fill-opacity=".56"/><path d="M44 24c0 11.046-8.954 20-20 20H4c0-7.18 5.82-13 13-13h7a7 7 0 0 0 7-7z" fill="url(#d)" fill-opacity=".1"/><path d="M24 4C12.954 4 4 12.954 4 24v20h.005c7.163-.003 12.972-5.799 12.995-12.957l.043-.043H17v-7a7 7 0 0 1 11.988-4.91l9.206-9.18A19.94 19.94 0 0 0 24 4" fill="url(#e)"/><path d="M24 4C12.954 4 4 12.954 4 24v20h.005c7.163-.003 12.972-5.799 12.995-12.957l.043-.043H17v-7a7 7 0 0 1 11.988-4.91l9.206-9.18A19.94 19.94 0 0 0 24 4" fill="url(#f)"/><defs><radialGradient id="c" cx="0" cy="0" r="1" gradientUnits="userSpaceOnUse" gradientTransform="matrix(8 5.5 -9.6664 14.06022 11 35.5)"><stop/><stop offset=".7" stop-opacity="0"/></radialGradient><radialGradient id="d" cx="0" cy="0" r="1" gradientUnits="userSpaceOnUse" gradientTransform="matrix(14.79998 9.2 -16.1692 26.01131 8.6 34)"><stop offset=".328"/><stop offset=".604" stop-opacity="0"/></radialGradient><radialGradient id="f" cx="0" cy="0" r="1" gradientUnits="userSpaceOnUse" gradientTransform="matrix(26.79999 -4.6 12.09404 70.46091 .6 16.4)"><stop stop-color="#6d05e8"/><stop offset="1" stop-color="#6d05e8" stop-opacity="0"/></radialGradient><linearGradient id="a" x1="28.4" y1="18.2" x2="21.8" y2="45.2" gradientUnits="userSpaceOnUse"><stop stop-color="#9237e3"/><stop offset="1" stop-color="#48e6f3"/></linearGradient><linearGradient id="b" x1="17" y1="41" x2="34.6" y2="37" gradientUnits="userSpaceOnUse"><stop stop-color="#51e6ff"/><stop offset="1" stop-color="#71d4ff" stop-opacity="0"/></linearGradient><linearGradient id="e" x1="12.2" y1="25.4" x2="22.4" y2="11" gradientUnits="userSpaceOnUse"><stop stop-color="#6d05e8"/><stop offset="1" stop-color="#ab5add" stop-opacity="0"/></linearGradient></defs></svg>