<svg xmlns="http://www.w3.org/2000/svg" viewBox="60 78.75 581.25 562.5"><defs><radialGradient id="b" gradientUnits="userSpaceOnUse" cx="0" cy="0" fx="0" fy="0" r="1" gradientTransform="rotate(135 185.459 218.557)scale(564.67953 950.43148)"><stop offset=".152" style="stop-color:#aa1d2d;stop-opacity:1"/><stop offset=".381" style="stop-color:#d12b18;stop-opacity:.439216"/><stop offset=".602" style="stop-color:#ff3c00;stop-opacity:0"/></radialGradient><radialGradient id="c" gradientUnits="userSpaceOnUse" cx="0" cy="0" fx="0" fy="0" r="1" gradientTransform="rotate(-25.283 1302.482 337.58)scale(535.28852 969.753)"><stop offset=".407" style="stop-color:#ff66fb;stop-opacity:.501961"/><stop offset="1" style="stop-color:#ea3d01;stop-opacity:0"/></radialGradient><radialGradient id="e" gradientUnits="userSpaceOnUse" cx="0" cy="0" fx="0" fy="0" r="1" gradientTransform="rotate(11.835 -1742.512 1705.56)scale(363.5865 346.623)"><stop offset=".786" style="stop-color:#ffa05c;stop-opacity:0"/><stop offset=".905" style="stop-color:#ffce84;stop-opacity:1"/></radialGradient><radialGradient id="f" gradientUnits="userSpaceOnUse" cx="0" cy="0" fx="0" fy="0" r="1" gradientTransform="rotate(-33.198 781.662 -442.382)scale(367.1325 351.093)"><stop offset=".295" style="stop-color:#ff99e9;stop-opacity:.8"/><stop offset=".728" style="stop-color:#ff99e9;stop-opacity:0"/></radialGradient><radialGradient id="g" gradientUnits="userSpaceOnUse" cx="0" cy="0" fx="0" fy="0" r="1" gradientTransform="rotate(-48.864 603.117 -162.266)scale(390.885 356.98651)"><stop offset="0" style="stop-color:#fd6ef9;stop-opacity:1"/><stop offset=".637" style="stop-color:#f94;stop-opacity:1"/><stop offset=".852" style="stop-color:#fcc479;stop-opacity:1"/></radialGradient><radialGradient id="h" gradientUnits="userSpaceOnUse" cx="0" cy="0" fx="0" fy="0" r="1" gradientTransform="rotate(98.395 101.458 188.737)scale(198.951 449.6325)"><stop offset=".144" style="stop-color:#ff8d13;stop-opacity:1"/><stop offset=".537" style="stop-color:#ff7f29;stop-opacity:0"/></radialGradient><radialGradient id="i" gradientUnits="userSpaceOnUse" cx="0" cy="0" fx="0" fy="0" r="1" gradientTransform="rotate(45 -386.466 244.891)scale(339.411)"><stop offset="0" style="stop-color:#f8193e;stop-opacity:1"/><stop offset=".939" style="stop-color:#920616;stop-opacity:1"/></radialGradient><radialGradient id="j" gradientUnits="userSpaceOnUse" cx="0" cy="0" fx="0" fy="0" r="1" gradientTransform="matrix(0 168 -191.25 0 179.97 489)"><stop offset=".576" style="stop-color:#ffb055;stop-opacity:0"/><stop offset=".974" style="stop-color:#fff2be;stop-opacity:.301961"/></radialGradient><linearGradient id="a" gradientUnits="userSpaceOnUse" x1="22.096" y1="4.056" x2="-.876" y2="26.033" gradientTransform="scale(15)"><stop offset=".058" style="stop-color:#ff7f48;stop-opacity:1"/><stop offset="1" style="stop-color:#e5495b;stop-opacity:1"/></linearGradient><linearGradient id="d" gradientUnits="userSpaceOnUse" x1="27.549" y1="28.172" x2="47.729" y2="13.216" gradientTransform="scale(15)"><stop offset=".311" style="stop-color:#ff6e30;stop-opacity:1"/><stop offset=".635" style="stop-color:#ffa05c;stop-opacity:1"/></linearGradient></defs><path style="stroke:none;fill-rule:nonzero;fill:url(#a)" d="M641.2 360c0-155.332-125.907-281.25-281.223-281.25S78.75 204.668 78.75 360s125.91 281.25 281.227 281.25S641.199 515.332 641.199 360m0 0"/><path style="stroke:none;fill-rule:nonzero;fill:url(#b)" d="M641.2 360c0-155.332-125.907-281.25-281.223-281.25S78.75 204.668 78.75 360s125.91 281.25 281.227 281.25S641.199 515.332 641.199 360m0 0"/><path style="stroke:none;fill-rule:nonzero;fill:url(#c)" d="M641.2 360c0-155.332-125.907-281.25-281.223-281.25S78.75 204.668 78.75 360s125.91 281.25 281.227 281.25S641.199 515.332 641.199 360m0 0"/><path style="stroke:none;fill-rule:nonzero;fill:url(#d)" d="M360.016 78.75c155.312.004 281.218 125.922 281.218 281.25 0 51.672-13.96 100.07-38.273 141.68l4.57-10.121c27.832-61.797-17.406-131.727-85.183-131.676l-111.93.086c-27.824.023-50.402-22.535-50.402-50.36V197.477c-.004-67.805-70.012-112.993-131.793-85.067l-8.996 4.074c41.406-23.992 89.492-37.734 140.789-37.734m0 0"/><path style="stroke:none;fill-rule:nonzero;fill:url(#e)" d="M360.016 78.75c155.312.004 281.218 125.922 281.218 281.25 0 51.672-13.96 100.07-38.273 141.68l4.57-10.121c27.832-61.797-17.406-131.727-85.183-131.676l-111.93.086c-27.824.023-50.402-22.535-50.402-50.36V197.477c-.004-67.805-70.012-112.993-131.793-85.067l-8.996 4.074c41.406-23.992 89.492-37.734 140.789-37.734m0 0"/><path style="stroke:none;fill-rule:nonzero;fill:url(#f)" d="M360.016 78.75c155.312.004 281.218 125.922 281.218 281.25 0 51.672-13.96 100.07-38.273 141.68l4.57-10.121c27.832-61.797-17.406-131.727-85.183-131.676l-111.93.086c-27.824.023-50.402-22.535-50.402-50.36V197.477c-.004-67.805-70.012-112.993-131.793-85.067l-8.996 4.074c41.406-23.992 89.492-37.734 140.789-37.734m0 0"/><path style="stroke:none;fill-rule:nonzero;fill:url(#g)" d="M360.016 78.75c155.312.004 281.218 125.922 281.218 281.25 0 51.672-13.96 100.07-38.273 141.68l4.57-10.121c27.832-61.797-17.406-131.727-85.183-131.676l-111.93.086c-27.824.023-50.402-22.535-50.402-50.36V197.477c-.004-67.805-70.012-112.993-131.793-85.067l-8.996 4.074c41.406-23.992 89.492-37.734 140.789-37.734m0 0"/><path style="stroke:none;fill-rule:nonzero;fill:url(#h)" d="M360.016 78.75c155.312.004 281.218 125.922 281.218 281.25 0 51.672-13.96 100.07-38.273 141.68l4.57-10.121c27.832-61.797-17.406-131.727-85.183-131.676l-111.93.086c-27.824.023-50.402-22.535-50.402-50.36V197.477c-.004-67.805-70.012-112.993-131.793-85.067l-8.996 4.074c41.406-23.992 89.492-37.734 140.789-37.734m0 0"/><path style="stroke:none;fill-rule:nonzero;fill:url(#i)" d="M108.75 345h142.5c26.926 0 48.75 21.824 48.75 48.75v142.5c0 26.926-21.824 48.75-48.75 48.75h-142.5C81.824 585 60 563.176 60 536.25v-142.5C60 366.824 81.824 345 108.75 345m0 0"/><path style="stroke:none;fill-rule:nonzero;fill:url(#j)" d="M108.75 345h142.5c26.926 0 48.75 21.824 48.75 48.75v142.5c0 26.926-21.824 48.75-48.75 48.75h-142.5C81.824 585 60 563.176 60 536.25v-142.5C60 366.824 81.824 345 108.75 345m0 0"/><path style="stroke:none;fill-rule:nonzero;fill:#fff;fill-opacity:1" d="M168.293 488.906v44.664h-30.875V396.426h47.7q25.616 0 39 11.191 13.48 11.187 13.48 33.184 0 22.668-15.106 35.387-15.008 12.719-40.34 12.718Zm0-68.761v45.043h12.906c7.645 0 13.543-2.004 17.684-6.024 4.14-4.016 6.215-9.785 6.215-17.309q-.002-10.422-6.121-16.07-6.023-5.642-17.301-5.64Zm0 0"/></svg>