<svg xmlns="http://www.w3.org/2000/svg" viewBox="0 0 35 36"><title>Microsoft Word 2025 logo - Brandlogos.net</title><defs><radialGradient id="a" cx="-619.29" cy="488.84" fx="-619.29" fy="488.84" r="1" gradientTransform="matrix(47.57 0 0 -20.15 29495.74 9885.89)" gradientUnits="userSpaceOnUse"><stop offset=".18" stop-color="#1657f4"/><stop offset=".57" stop-color="#0036c4"/></radialGradient><radialGradient id="c" cx="-637.72" cy="517.98" fx="-637.72" fy="517.98" r="1" gradientTransform="rotate(-46.45 -34253.739 40515.578)scale(-29.36 72.32)" gradientUnits="userSpaceOnUse"><stop offset=".14" stop-color="#d471ff"/><stop offset=".83" stop-color="#509df5" stop-opacity="0"/></radialGradient><radialGradient id="d" cx="-611.76" cy="514.18" fx="-611.76" fy="514.18" r="1" gradientTransform="matrix(0 18.62 101.65 0 -52234.57 11411.47)" gradientUnits="userSpaceOnUse"><stop offset=".28" stop-color="#4f006f" stop-opacity="0"/><stop offset="1" stop-color="#4f006f"/></radialGradient><radialGradient id="f" cx="-650.27" cy="515.34" fx="-650.27" fy="515.34" r="1" gradientTransform="rotate(166.85 -11669.024 -17096.218)scale(29.49 -70.64)" gradientUnits="userSpaceOnUse"><stop offset=".06" stop-color="#e4a7fe"/><stop offset=".54" stop-color="#e4a7fe" stop-opacity="0"/></radialGradient><radialGradient id="g" cx="-600.8" cy="515.58" fx="-600.8" fy="515.58" r="1" gradientTransform="rotate(225 4384.61 8657.105)scale(-22.63 22.63)" gradientUnits="userSpaceOnUse"><stop offset=".08" stop-color="#367af2"/><stop offset=".87" stop-color="#001a8f"/></radialGradient><radialGradient id="h" cx="-598.04" cy="557.24" fx="-598.04" fy="557.24" r="1" gradientTransform="matrix(0 11.2 12.77 0 -7105.12 6724.6)" gradientUnits="userSpaceOnUse"><stop offset=".59" stop-color="#2763e5" stop-opacity="0"/><stop offset=".97" stop-color="#58aafe"/></radialGradient><linearGradient id="b" x1="5" y1="97" x2="27.97" y2="97" gradientTransform="matrix(1 0 0 -1 0 116)" gradientUnits="userSpaceOnUse"><stop offset="0" stop-color="#66c0ff"/><stop offset=".26" stop-color="#0094f0"/></linearGradient><linearGradient id="e" x1="5" y1="107.22" x2="35" y2="106.72" gradientTransform="matrix(1 0 0 -1 0 116)" gradientUnits="userSpaceOnUse"><stop offset="0" stop-color="#9deaff"/><stop offset=".2" stop-color="#3bd5ff"/></linearGradient></defs><path d="M5 27.09 19 10l16 11.11V32.5c0 1.93-1.57 3.5-3.5 3.5H11c-3.31 0-6-2.69-6-6z" style="fill:url(#a)"/><path d="M5 15.04c0-2.49 2.01-4.5 4.5-4.5h20.39L35 8v12.5c0 1.93-1.57 3.5-3.5 3.5H11c-3.31 0-6 2.69-6 6z" style="fill:url(#b)"/><path d="M5 15.04c0-2.49 2.01-4.5 4.5-4.5h20.39L35 8v12.5c0 1.93-1.57 3.5-3.5 3.5H11c-3.31 0-6 2.69-6 6z" style="fill:url(#c);fill-opacity:.6"/><path d="M5 15.04c0-2.49 2.01-4.5 4.5-4.5h20.39L35 8v12.5c0 1.93-1.57 3.5-3.5 3.5H11c-3.31 0-6 2.69-6 6z" style="fill:url(#d);fill-opacity:.1"/><path d="M5 6c0-3.31 2.69-6 6-6h20.5C33.43 0 35 1.57 35 3.5v5c0 1.93-1.57 3.5-3.5 3.5H11c-3.31 0-6 2.69-6 6z" style="fill:url(#e)"/><path d="M5 6c0-3.31 2.69-6 6-6h20.5C33.43 0 35 1.57 35 3.5v5c0 1.93-1.57 3.5-3.5 3.5H11c-3.31 0-6 2.69-6 6z" style="fill:url(#f);fill-opacity:.8"/><rect y="17" width="16" height="16" rx="3.25" ry="3.25" style="fill:url(#g)"/><rect y="17" width="16" height="16" rx="3.25" ry="3.25" style="fill:url(#h);fill-opacity:.65"/><path d="m13.49 20.43-1.97 9.14H9.17l-1.16-5.48-1.22 5.49H4.41l-1.89-9.14h1.94l1.17 6.03 1.16-6.03h2.38l1.21 6.03 1.14-6.03h1.97Z" style="fill:#fff"/></svg>