<svg xmlns="http://www.w3.org/2000/svg" viewBox="0 0 36 36" fill="none"><path fill="url(#a)" d="m4 9 4-2 7 4h12v17l-1 1H7a3 3 0 0 1-3-3z"/><path fill="url(#b)" fill-rule="evenodd" d="M14.961 7.426A3 3 0 0 0 16.726 8H29a3 3 0 0 1 3 3v15a3 3 0 0 1-3 3h-3V14.5a2.5 2.5 0 0 0-2.5-2.5H13a3 3 0 0 1-1.8-.6L8.8 9.6A3 3 0 0 0 7 9H4a3 3 0 0 1 3-3h5.024a3 3 0 0 1 1.765.574z" clip-rule="evenodd"/><defs><radialGradient id="a" cx="0" cy="0" r="1" gradientTransform="matrix(42.9176 0 0 45.5519 28.926 -8.114)" gradientUnits="userSpaceOnUse"><stop offset=".556" stop-color="#6d4aff"/><stop offset="1" stop-color="#ff50c3"/></radialGradient><linearGradient id="b" x1="3.631" x2="38.345" y1="-6.003" y2="32.431" gradientUnits="userSpaceOnUse"><stop stop-color="#7341ff"/><stop offset=".359" stop-color="#b487ff"/><stop offset="1" stop-color="#ffc8ff"/></linearGradient></defs></svg>