<svg xmlns="http://www.w3.org/2000/svg" viewBox="0 0 36 36" fill="none"><path fill="#6d4aff" d="m22.669 7.465 3.343-2.163c1.16-.75 2.698-.027 2.874 1.35l.81 6.348-7.029-5.535zm-9.079 0-3.344-2.163c-1.16-.75-2.698-.027-2.874 1.35L6.563 13l7.029-5.535z"/><path fill="#4a2dc5" d="m9.322 7.853 1.623 1.052-2.647 1.792.32-2.515a.457.457 0 0 1 .702-.329zm17.368 0-1.624 1.052 2.647 1.792-.32-2.515a.458.458 0 0 0-.703-.329"/><path fill="#4129a3" d="M27.017 25.377H8.98v4.756h18.037z"/><path fill="#fc8f00" d="M18.475 34.523c1.667 0 3.019-1.361 3.019-3.04s-1.352-3.042-3.019-3.042-3.019 1.362-3.019 3.04c0 1.68 1.351 3.042 3.019 3.042"/><path fill="#fc8f00" d="M17.35 34.525h1.156v-6.08H17.35z"/><path fill="#ffac2e" d="M17.347 34.523c1.667 0 3.018-1.361 3.018-3.04s-1.351-3.042-3.018-3.042-3.019 1.362-3.019 3.04c0 1.68 1.352 3.042 3.019 3.042"/><path fill="#372580" d="M17.343 30.09a.945.945 0 0 1 .87.586q.07.173.07.361a.94.94 0 0 1-.459.81v.673a.48.48 0 0 1-.96 0v-.672a.945.945 0 0 1-.388-1.172.94.94 0 0 1 .867-.585Z"/><path fill="#6d4aff" d="M32 19.653c0 6.48-7.633 8.789-14 8.789-5.596 0-14-2.31-14-8.79S10.268 6.624 18 6.624s14 6.55 14 13.029"/><path fill="#fff" d="M24.865 21.767c2.315-1.006 3.473-3.499 2.587-5.569s-3.48-2.932-5.796-1.926c-2.315 1.005-3.473 3.5-2.587 5.568.886 2.07 3.481 2.933 5.796 1.927M14.44 19.84c.887-2.07-.272-4.563-2.587-5.569s-4.91-.143-5.796 1.927.272 4.563 2.587 5.57c2.315 1.004 4.91.142 5.797-1.928z"/><path fill="#372480" d="M14.577 17.268c-1.272-3.114-5.925-4.304-8.017-1.437-.652.91-.81 2.087-.558 3.192-.89-1.68-.217-3.84 1.384-4.82 2.617-1.724 6.671-.06 7.19 3.066h.001Zm4.357 0c.52-3.128 4.574-4.789 7.19-3.068 1.602.982 2.274 3.142 1.384 4.821.255-1.103.095-2.282-.558-3.192-2.092-2.867-6.744-1.676-8.016 1.438Z"/><path fill="#fff" d="M15.354 21.882c.393 0 .713.322.713.72 0 .117.094.212.21.212a.21.21 0 0 0 .207-.17l.017-.182a.72.72 0 0 1 .7-.58.212.212 0 0 0 0-.424 1.14 1.14 0 0 0-.924.476 1.13 1.13 0 0 0-.923-.476.212.212 0 1 0 0 .424"/><path fill="#4129a3" d="M23.502 20.546c.844 0 1.528-1.123 1.528-2.508s-.684-2.51-1.528-2.51-1.528 1.124-1.528 2.51.684 2.508 1.528 2.508"/><path fill="#fff" opacity=".7" d="M24.43 16.983c.319 0 .577-.26.577-.58a.58.58 0 0 0-.577-.582.58.58 0 0 0-.576.58c0 .32.258.582.576.582"/><path fill="#4129a3" d="M10.32 20.546c.845 0 1.529-1.123 1.529-2.508s-.684-2.51-1.528-2.51-1.528 1.124-1.528 2.51.684 2.508 1.528 2.508z"/><path fill="#fff" opacity=".7" d="M11.249 16.983c.318 0 .576-.26.576-.58a.58.58 0 0 0-.797-.537.58.58 0 0 0-.356.536c0 .32.258.58.577.58Z"/></svg>