<svg xmlns="http://www.w3.org/2000/svg" viewBox="0 0 36 36" fill="none"><path fill="url(#a)" d="M12.42 7.54c1.95-1.96 2.93-2.93 4.06-3.3a4.93 4.93 0 0 1 3.04 0c1.13.37 2.1 1.34 4.06 3.3l4.88 4.88c1.96 1.95 2.93 2.93 3.3 4.06.32.99.32 2.05 0 3.04-.37 1.13-1.34 2.1-3.3 4.06l-4.88 4.88c-1.95 1.96-2.93 2.93-4.06 3.3-.99.32-2.05.32-3.04 0-1.13-.37-2.1-1.34-4.06-3.3l-.92-1.03a8 8 0 0 1-1.03-1.28 3.7 3.7 0 0 1-.38-1c-.09-.4-.09-.82-.09-1.66V12.51c0-.84 0-1.26.09-1.65.08-.35.2-.7.38-1 .2-.36.48-.67 1.03-1.3z"/><path fill="url(#b)" d="M12.42 7.54c1.95-1.96 2.93-2.93 4.06-3.3a4.93 4.93 0 0 1 3.04 0c1.13.37 2.1 1.34 4.06 3.3l4.88 4.88c1.96 1.95 2.93 2.93 3.3 4.06.32.99.32 2.05 0 3.04-.37 1.13-1.34 2.1-3.3 4.06l-4.88 4.88c-1.95 1.96-2.93 2.93-4.06 3.3-.99.32-2.05.32-3.04 0-1.13-.37-2.1-1.34-4.06-3.3l-.92-1.03a8 8 0 0 1-1.03-1.28 3.7 3.7 0 0 1-.38-1c-.09-.4-.09-.82-.09-1.66V12.51c0-.84 0-1.26.09-1.65.08-.35.2-.7.38-1 .2-.36.48-.67 1.03-1.3z"/><path fill="url(#c)" d="M12.07 7.89c.98-.98 1.47-1.47 2.03-1.65.5-.16 1.03-.16 1.52 0 .57.18 1.05.67 2.03 1.65l7.33 7.32c.97.98 1.46 1.46 1.64 2.03.16.5.16 1.03 0 1.52-.18.56-.67 1.05-1.64 2.03l-7.33 7.32c-.98.98-1.46 1.47-2.03 1.65-.5.16-1.03.16-1.52 0-.56-.18-1.05-.67-2.03-1.65l-4.53-4.53c-1.96-1.95-2.93-2.93-3.3-4.06a4.93 4.93 0 0 1 0-3.04c.37-1.13 1.34-2.1 3.3-4.06z"/><defs><radialGradient id="a" cx="0" cy="0" r="1" gradientTransform="rotate(-58.14 35.5 5.08)scale(23.3731 36.5508)" gradientUnits="userSpaceOnUse"><stop stop-color="#ffd580"/><stop offset=".09" stop-color="#f6c592"/><stop offset=".2" stop-color="#ebb6a2"/><stop offset=".32" stop-color="#dfa5af"/><stop offset=".43" stop-color="#d397be"/><stop offset=".53" stop-color="#c486cb"/><stop offset=".65" stop-color="#b578d9"/><stop offset=".77" stop-color="#a166e5"/><stop offset=".89" stop-color="#8b57f2"/><stop offset="1" stop-color="#704cff"/></radialGradient><radialGradient id="c" cx="0" cy="0" r="1" gradientTransform="rotate(-58.142 31.912 5.496)scale(18.8001 29.3996)" gradientUnits="userSpaceOnUse"><stop stop-color="#ffd580"/><stop offset=".09" stop-color="#f6c592"/><stop offset=".2" stop-color="#ebb6a2"/><stop offset=".32" stop-color="#dfa5af"/><stop offset=".43" stop-color="#d397be"/><stop offset=".53" stop-color="#c486cb"/><stop offset=".65" stop-color="#b578d9"/><stop offset=".77" stop-color="#a166e5"/><stop offset=".89" stop-color="#8b57f2"/><stop offset="1" stop-color="#704cff"/></radialGradient><linearGradient id="b" x1="11.49" x2="16.93" y1="-1.56" y2="31.68" gradientUnits="userSpaceOnUse"><stop stop-color="#6d4aff"/><stop offset=".39" stop-color="#b39ffb" stop-opacity=".98"/><stop offset="1" stop-color="#ffe8db" stop-opacity=".8"/></linearGradient></defs></svg>