<svg xmlns="http://www.w3.org/2000/svg" viewBox="0 0 36 36" fill="none"><path d="M4.004 27.128a2.955 2.955 0 0 0 2.954 2.955h22.087A2.955 2.955 0 0 0 32 27.128v-9.454c0-6.526-5.291-11.817-11.818-11.817H6.958a2.955 2.955 0 0 0-2.954 2.954v9.308H9.84c2.105 0 3.811 1.823 3.811 4.072s-1.706 4.072-3.81 4.072H4.004z" fill="url(#a)"/><path d="M9.546 20.038a2.167 2.167 0 1 1 0 4.333 2.167 2.167 0 0 1 0-4.333" fill="url(#b)"/><path d="M4 27.189a2.954 2.954 0 0 0 2.954 2.954h19.137V18.72a8.863 8.863 0 0 0-8.863-8.863H4v8.263h5.84c2.105 0 3.811 1.823 3.811 4.072s-1.706 4.072-3.81 4.072H4z" fill="#6d4aff"/><path d="M4 27.189a2.954 2.954 0 0 0 2.954 2.954h19.137V18.72a8.863 8.863 0 0 0-8.863-8.863H4v8.263h5.84c2.105 0 3.811 1.823 3.811 4.072s-1.706 4.072-3.81 4.072H4z" fill="url(#c)" fill-opacity=".9"/><path d="M9.546 20.038a2.167 2.167 0 1 1 0 4.333 2.167 2.167 0 0 1 0-4.333" fill="#6d4aff"/><path d="M9.546 20.038a2.167 2.167 0 1 1 0 4.333 2.167 2.167 0 0 1 0-4.333" fill="url(#d)" fill-opacity=".9"/><path d="M12.625 24.97c-.696.796-1.686 1.293-2.785 1.293H4v.865a2.955 2.955 0 0 0 2.954 2.955H8.19l4.508-5.121z" fill="#ffbb93"/><defs><linearGradient id="a" x1=".486" x2="35.124" y1="8.676" y2="22.169" gradientUnits="userSpaceOnUse"><stop stop-color="#957afd"/><stop offset="1" stop-color="#ffc6c6"/></linearGradient><linearGradient id="b" x1=".486" x2="35.124" y1="8.676" y2="22.169" gradientUnits="userSpaceOnUse"><stop stop-color="#957afd"/><stop offset="1" stop-color="#ffc6c6"/></linearGradient><linearGradient id="c" x1="24.843" x2="14.099" y1="12.971" y2="34.832" gradientUnits="userSpaceOnUse"><stop offset=".15" stop-color="#fa528e" stop-opacity="0"/><stop offset=".721" stop-color="#ff8065"/><stop offset="1" stop-color="#ffa51f"/></linearGradient><linearGradient id="d" x1="24.843" x2="14.099" y1="12.971" y2="34.832" gradientUnits="userSpaceOnUse"><stop offset=".15" stop-color="#fa528e" stop-opacity="0"/><stop offset=".721" stop-color="#ff8065"/><stop offset="1" stop-color="#ffa51f"/></linearGradient></defs></svg>