<svg xmlns="http://www.w3.org/2000/svg" viewBox="0 0 36 36" fill="none"><path fill="url(#a)" d="M7 6a3 3 0 0 0-3 3v1l1 1v17l20-10 1 1h6V9a3 3 0 0 0-3-3z"/><path fill="url(#b)" d="M23.643 10H4v16.119A2.88 2.88 0 0 0 6.881 29H17l5.251-7.877A3.41 3.41 0 0 1 25.41 19H26v-6.643A2.357 2.357 0 0 0 23.643 10"/><path fill="#b8d7ff" d="M17 29v-1.075a2.5 2.5 0 0 1 .602-1.627l5.053-5.897a3.4 3.4 0 0 1 .345-.404l-.345.404A3.4 3.4 0 0 0 22 22.41V29z"/><path fill="#8f69ff" d="M24.6 25.386h1.02a.79.79 0 0 0 .802.596c.462-.001.766-.253.766-.623s-.316-.575-.943-.575h-.405v-.833h.352c.606 0 .854-.223.854-.555 0-.331-.269-.56-.642-.56a.64.64 0 0 0-.455.153.63.63 0 0 0-.219.425h-.985c.035-.58.497-1.414 1.654-1.414.928 0 1.57.525 1.57 1.264a1.1 1.1 0 0 1-.216.66c-.142.191-.34.335-.567.405v.015a1.12 1.12 0 0 1 .922 1.135c0 .801-.74 1.33-1.695 1.33-1.014.005-1.74-.567-1.813-1.424Zm5.292-3.306h.743v4.661h-.959v-3.576l-.923.622v-.942l1.14-.765Z"/><defs><radialGradient id="b" cx="0" cy="0" r="1" gradientTransform="matrix(44.9183 0 0 40.1408 25.159 -5.851)" gradientUnits="userSpaceOnUse"><stop offset=".503" stop-color="#6d4aff"/><stop offset=".994" stop-color="#06b8ff"/></radialGradient><linearGradient id="a" x1="27.523" x2="11.191" y1="21.036" y2="-2.692" gradientUnits="userSpaceOnUse"><stop stop-color="#bfe8ff"/><stop offset=".307" stop-color="#bfabff"/><stop offset="1" stop-color="#7341ff"/></linearGradient></defs></svg>