<svg xmlns="http://www.w3.org/2000/svg" viewBox="0 0 36 36" fill="none"><path d="M27.579 5H8.948A3.95 3.95 0 0 0 5 8.948v18.63a3.95 3.95 0 0 0 3.948 3.949h18.63a3.95 3.95 0 0 0 3.948-3.948V8.948A3.95 3.95 0 0 0 27.579 5" fill="url(#a)"/><path d="M18.263 5h6.632v6.632h-6.632z" fill="#85d4f5"/><path d="M24.893 5h2.684a3.95 3.95 0 0 1 3.947 3.948v2.684h-6.631z" fill="#d6f1fc"/><path d="M24.893 11.632h6.631v6.631h-6.631z" fill="#85d4f5"/><path fill-rule="evenodd" clip-rule="evenodd" d="M19.37 26c0 .61-.495 1.105-1.105 1.105h-7.737a1.1 1.1 0 0 1-.433-.075 1.1 1.1 0 0 1-.37-.237 1.1 1.1 0 0 1-.248-.363 1.1 1.1 0 0 1 0-.86 1 1 0 0 1 .248-.363 1.1 1.1 0 0 1 .37-.236 1.1 1.1 0 0 1 .433-.076h7.737c.61 0 1.105.495 1.105 1.105m-3.316-4.421c0 .61-.495 1.105-1.105 1.105h-4.421a1.1 1.1 0 0 1-.761-.334 1.08 1.08 0 0 1 0-1.54 1.07 1.07 0 0 1 .76-.335h4.422c.61 0 1.105.495 1.105 1.105Z" fill="#fff"/><defs><radialGradient id="a" cx="0" cy="0" r="1" gradientTransform="rotate(-53.15 35.608 20.231)scale(33.0407)" gradientUnits="userSpaceOnUse"><stop stop-color="#6d4aff"/><stop offset="1" stop-color="#34b8ee"/></radialGradient></defs></svg>