<svg xmlns="http://www.w3.org/2000/svg" viewBox="0 0 36 36" fill="none"><path fill="url(#a)" fill-rule="evenodd" d="m21.78 14.36.002.002L14 23 4 11.993V7.245a.644.644 0 0 1 1.055-.495l11.095 9.213a2.896 2.896 0 0 0 3.7 0z" clip-rule="evenodd"/><path fill="url(#b)" d="m26 10.857-4.22 3.504.002.001-5.588 4.936a2.575 2.575 0 0 1-3.35.05L4 11.993v14.11A2.896 2.896 0 0 0 6.897 29H26l2-9.072z"/><path fill="url(#c)" fill-rule="evenodd" d="M26 10.86V29h3.103c1.6 0 2.897-1.297 2.897-2.896V7.244a.644.644 0 0 0-1.055-.494z" clip-rule="evenodd"/><defs><linearGradient id="a" x1="14.507" x2="5.116" y1="23.152" y2="-9.469" gradientUnits="userSpaceOnUse"><stop stop-color="#e3d9ff"/><stop offset="1" stop-color="#7341ff"/></linearGradient><linearGradient id="c" x1="41.055" x2="19.455" y1="43.522" y2="-3.075" gradientUnits="userSpaceOnUse"><stop offset=".271" stop-color="#e3d9ff"/><stop offset="1" stop-color="#7341ff"/></linearGradient><radialGradient id="b" cx="0" cy="0" r="1" gradientTransform="matrix(27.9882 0 0 26.381 27.895 13.077)" gradientUnits="userSpaceOnUse"><stop offset=".556" stop-color="#6d4aff"/><stop offset=".994" stop-color="#aa8eff"/></radialGradient></defs></svg>