<svg xmlns="http://www.w3.org/2000/svg" viewBox="0 0 36 36" fill="none"><path d="M4 8.667A4.67 4.67 0 0 1 8.667 4h18.666A4.67 4.67 0 0 1 32 8.667v18.666A4.667 4.667 0 0 1 27.333 32H8.667A4.67 4.67 0 0 1 4 27.333z" fill="url(#a)"/><path fill-rule="evenodd" clip-rule="evenodd" d="M12.475 15.697c.65 0 1.176.527 1.176 1.176v9.968a1.175 1.175 0 1 1-2.352 0v-9.968c0-.65.526-1.176 1.176-1.176" fill="#fff"/><path fill-rule="evenodd" clip-rule="evenodd" d="M7.379 23.37c0-.65.526-1.176 1.176-1.176h11.088a1.175 1.175 0 1 1 0 2.352H8.555c-.65 0-1.176-.526-1.176-1.176" fill="#fff"/><path d="M18 4h7v7h-7z" fill="#fff" fill-opacity=".5"/><path d="M25 4h2.333A4.67 4.67 0 0 1 32 8.667V11h-7z" fill="#fff" fill-opacity=".8"/><path d="M25 11h7v7h-7z" fill="#fff" fill-opacity=".5"/><defs><radialGradient id="a" cx="0" cy="0" r="1" gradientUnits="userSpaceOnUse" gradientTransform="rotate(-53.15 38.608 16.733)scale(33.0407)"><stop stop-color="#1b854c"/><stop offset="1" stop-color="#26da79"/></radialGradient></defs></svg>