<svg version="1.2" xmlns="http://www.w3.org/2000/svg" viewBox="0 0 1000 1000" width="500" height="500"><style>.a{fill:#eaddff}.b{fill:#6750a4}.c{fill:#e3e3e3}</style><path class="a" d="m464.9 28.6c-0.3 0.3-7.3 1.3-15.5 2-8.2 0.7-18.9 2-23.9 2.8-4.9 0.7-11.7 1.9-15 2.5-3.3 0.6-8.7 1.8-12 2.6-3.3 0.8-9.6 2.3-14 3.4-4.4 1.1-14.7 4-23 6.5-8.2 2.5-18.6 5.9-23 7.6-4.4 1.7-9.8 3.8-12 4.7-2.2 0.8-5.4 2.1-7 2.8-1.6 0.7-5.9 2.5-9.5 4-3.6 1.5-13 5.9-21 9.8-8 3.9-19.7 10.2-26 14-6.3 3.8-14 8.5-17 10.4-3 2-8 5.2-11 7.2-3 2-12.7 9-21.5 15.7-8.8 6.7-21.9 17.5-29.2 24-7.2 6.6-18.7 17.7-25.5 24.9-6.8 7.2-15.8 17.1-19.9 22-4.1 4.9-11.2 13.7-15.6 19.5-4.4 5.8-10.9 14.8-14.5 20-3.5 5.2-10.2 15.8-14.8 23.5-4.6 7.7-11.9 21-16.1 29.5-4.2 8.5-9.5 19.8-11.7 25-2.2 5.2-5.4 12.9-7.1 17-1.6 4.1-4.8 12.9-7 19.5-2.2 6.6-4.8 14.7-5.7 18-0.9 3.3-2.5 9.1-3.5 13-1.1 3.9-2.6 10.1-3.5 14-0.9 3.9-2.2 10.1-3 14-0.8 3.9-2.1 11.1-2.9 16-0.8 4.9-2.3 15.5-3.2 23.5-1.3 11.2-1.7 22.9-1.7 51.5 0.1 27.4 0.5 40.6 1.7 51 0.9 7.7 2.2 18 3 23 0.8 5 2 11.7 2.6 15 0.6 3.3 1.8 8.9 2.7 12.5 0.8 3.6 2.2 9.2 3 12.5 0.8 3.3 2.1 8.3 2.9 11 0.7 2.8 3.6 12.2 6.4 21 2.8 8.8 6.5 19.4 8.2 23.5 1.7 4.1 4.9 11.8 7.1 17 2.2 5.2 7.5 16.5 11.7 25 4.3 8.5 11.3 21.6 15.8 29 4.4 7.4 11 18 14.8 23.5 3.7 5.5 10.4 14.7 14.8 20.5 4.4 5.8 11.5 14.5 15.6 19.5 4.1 5 13.4 15.1 20.6 22.6 7.1 7.5 19.3 19.2 27 26.1 7.7 6.8 20.5 17.4 28.5 23.4 8 6 17 12.6 20 14.5 3 2 8.9 5.8 13 8.4 4.1 2.6 8.4 5.3 9.5 6 1.1 0.7 6.3 3.6 11.5 6.5 5.2 2.9 13.6 7.4 18.5 10 5 2.6 13.5 6.6 19 8.9 5.5 2.4 11.4 4.9 13 5.6 1.6 0.7 4.8 2 7 2.8 2.2 0.9 7.6 3 12 4.7 4.4 1.7 14.8 5.1 23 7.6 8.3 2.5 18.6 5.4 23 6.5 4.4 1.1 10.7 2.6 14 3.4 3.3 0.8 8.7 2 12 2.6 3.3 0.6 10.1 1.8 15 2.5 5 0.8 15.8 2.2 24 3.1 11.1 1.2 24.2 1.7 50 1.7 25.8 0 38.9-0.5 50-1.7 8.3-0.9 19-2.3 24-3.1 5-0.7 11.7-1.9 15-2.5 3.3-0.6 8.7-1.8 12-2.6 3.3-0.8 9.6-2.3 14-3.4 4.4-1.1 14.8-4 23-6.5 8.3-2.5 18.6-5.9 23-7.6 4.4-1.7 9.8-3.8 12-4.7 2.2-0.8 5.4-2.1 7-2.8 1.6-0.8 7.3-3.2 12.5-5.3 5.2-2.2 13.8-6.2 19-9 5.2-2.7 13.8-7.3 19-10.2 5.2-2.9 10.4-5.8 11.5-6.5 1.1-0.7 5.4-3.4 9.5-6 4.1-2.6 10-6.4 13-8.4 3-1.9 12-8.5 20-14.5 8-6 17.9-13.9 22-17.5 4.1-3.6 15.3-14.2 24.9-23.6 9.5-9.3 21.7-22.2 27-28.5 5.4-6.3 13.3-16.2 17.8-22 4.4-5.8 10.9-14.8 14.5-20 3.5-5.2 10.2-15.8 14.8-23.5 4.6-7.7 11.9-21 16.1-29.5 4.2-8.5 9.5-19.8 11.7-25 2.2-5.2 5.4-12.9 7.1-17 1.7-4.1 5.4-14.7 8.2-23.5 2.8-8.8 5.7-18.3 6.4-21 0.8-2.8 2.1-7.7 2.9-11 0.8-3.3 2.2-8.9 3-12.5 0.9-3.6 2.1-9.2 2.7-12.5 0.6-3.3 1.8-10 2.6-15 0.8-5 2.1-15.5 3-23.5 1.3-10.9 1.7-23.6 1.7-51-0.1-27.5-0.5-39.9-1.7-50.5-0.9-7.7-2.3-18.1-3.1-23-0.7-4.9-1.9-11.7-2.5-15-0.6-3.3-1.8-8.9-2.7-12.5-0.8-3.6-2.2-9.2-3-12.5-0.8-3.3-2.1-8.3-2.9-11-0.8-2.8-3.7-12.2-6.5-21-2.8-8.8-6.4-19.4-8.1-23.5-1.7-4.1-4.9-11.8-7.2-17-2.2-5.2-6.6-14.9-9.8-21.5-3.3-6.6-7.5-14.9-9.5-18.5-2-3.6-6.6-11.4-10.2-17.5-3.6-6.1-9.5-15.3-13-20.5-3.6-5.2-10.1-14.2-14.5-20-4.5-5.8-12.5-15.7-17.8-22-5.3-6.3-17.3-18.9-26.5-28-9.3-9.1-20.5-19.8-24.9-23.6-4.4-3.9-14.5-12-22.5-18-8-6-17-12.5-20-14.5-3-2-8-5.2-11-7.2-3-1.9-10.7-6.6-17-10.4-6.3-3.7-18-10-26-14-8-3.9-17.4-8.3-21-9.8-3.6-1.4-7.9-3.2-9.5-4-1.6-0.7-4.8-2-7-2.8-2.2-0.9-7.6-3-12-4.7-4.4-1.7-14.7-5.1-23-7.6-8.2-2.5-18.6-5.4-23-6.5-4.4-1.1-10.7-2.6-14-3.4-3.3-0.8-8.7-2-12-2.6-3.3-0.6-10-1.8-15-2.5-5-0.8-15.3-2.2-23-3-8.8-1-27.2-1.7-49.5-2-19.6-0.3-35.8-0.2-36.1 0.2z"/><path class="b" d="m560.5 112.8c-1.6 0.1-5.3 0.7-8 1.3-2.8 0.5-7.7 2.2-11 3.7-3.3 1.4-11.9 5.8-19 9.8-7.1 3.9-25.4 14.2-40.5 22.9-15.1 8.7-30 16.8-33 18.2-3 1.3-8 3-11 3.8-3 0.8-9.1 1.5-13.5 1.5-4.4 0-13.2-0.7-19.5-1.5-6.3-0.9-14.6-2-18.5-2.5-3.9-0.5-12.2-1.6-18.5-2.5-6.3-0.8-14.9-2-19-2.6-4.1-0.5-13.6-1.6-21-2.3-9.1-0.9-15.8-1.1-20.5-0.5-3.9 0.5-8.6 1.4-10.5 2-1.9 0.6-6.6 2.8-10.5 4.8-3.8 2-9.6 6.1-12.9 9.1-3.2 3-7.2 7.5-8.9 10-1.7 2.5-4.4 7.7-5.9 11.5-1.6 3.8-3.5 9.3-4.3 12-0.7 2.8-3.9 14.2-6.9 25.5-3.1 11.3-7.3 26.4-9.2 33.5-2 7.1-4.7 16.8-6 21.5-1.3 4.7-3.9 11.6-5.8 15.5-1.9 3.9-5.6 9.5-8.4 12.5-2.7 3-18.1 15.6-34.2 28-16.1 12.4-33.8 26.1-39.4 30.5-5.5 4.3-12.9 10.6-16.3 14-4.6 4.5-7.1 8.1-10.1 14.5-2.2 4.7-4.6 11.4-5.3 15-0.7 3.9-1 10.6-0.7 16.5 0.4 8.3 1 11.3 3.6 17.5 1.8 4.1 5.8 12.2 9 18 3.2 5.8 7.4 13.2 9.4 16.5 1.9 3.3 9.3 16.4 16.5 29 7.1 12.6 14.4 25.7 16.1 29 1.6 3.3 3.8 8.9 4.7 12.5 0.9 3.6 1.6 10.1 1.6 14.5 0 4.4-0.3 10-0.6 12.5-0.4 2.5-1.2 9-2 14.5-0.8 5.5-1.9 13.6-2.4 18-0.6 4.4-2 14.5-3.1 22.5-1 8-2.4 18.8-3 24-0.6 5.2-1.1 13.5-1.1 18.5 0 6.8 0.6 11 2.5 17 1.4 4.4 4.3 10.8 6.6 14.3 2.2 3.4 6.6 8.8 9.8 12 3.4 3.4 8.4 7 12.2 8.8 3.6 1.7 9.4 4.1 13 5.3 3.6 1.1 11.7 3.6 18 5.5 6.3 1.9 16.7 4.8 23 6.5 6.3 1.7 20.7 5.6 32 8.7 12.3 3.3 23.7 7.1 28.5 9.4 5 2.4 10.1 5.9 13.5 9.2 3.1 2.9 10.3 11.4 16 19 5.8 7.5 14.3 18.6 19 24.8 4.7 6.2 13.4 17.6 19.5 25.4 6.1 7.7 13.7 16.7 17 19.9 3.9 3.9 8.7 7.2 14 9.8 4.4 2.1 11.4 4.6 15.5 5.5 5.3 1.1 10 1.4 16 1 4.7-0.3 11-1.4 14-2.4 3-1.1 8.9-3.6 13-5.7 4.1-2.1 18.5-10 32-17.7 13.5-7.7 27-15.5 30-17.3 3-1.8 10.2-5.8 16-8.8 6.1-3.3 13.8-6.5 18.5-7.7 4.4-1.1 10.3-2 13-2 2.8 0 10 0.7 16 1.5 6 0.8 16.2 2.2 22.5 3 6.3 0.9 14.9 2 19 2.6 4.1 0.5 14.9 1.8 24 2.9 9.1 1 20.3 2.2 25 2.5 5.9 0.5 10.6 0.2 15.5-0.8 3.9-0.8 10.6-3.3 15-5.4 4.4-2.2 10.7-6.5 13.9-9.4 3.3-3 7.7-8.1 9.8-11.4 2.1-3.3 4.9-8.9 6.3-12.5 1.3-3.6 4.4-13.7 6.8-22.5 2.5-8.8 6.2-22.1 8.2-29.5 2-7.4 4.2-15.5 5-18 0.7-2.5 2.8-9.9 4.5-16.5 1.8-6.6 4.2-14 5.3-16.5 1.1-2.5 3.7-7 5.8-10 2-3 5.7-7.4 8.1-9.6 2.3-2.3 8.3-7.2 13.3-11 5-3.7 16.9-12.9 26.5-20.4 9.7-7.4 22-16.9 27.5-21 5.5-4.1 13.4-10.9 17.5-15 4.4-4.5 8.6-9.8 10.2-13 1.5-3 3.3-7.1 4.1-9 0.8-1.9 2-6.6 2.7-10.5 0.8-4.3 1.1-9.9 0.7-14.5-0.3-4.1-1.5-10-2.5-13-1.1-3-3.6-8.9-5.7-13-2.1-4.1-9.5-17.6-16.5-30-7-12.4-17.1-30.1-22.4-39.5-5.3-9.4-10.6-19.9-11.7-23.5-1.1-3.6-2.2-9.6-2.6-13.5-0.3-4.1 0.1-11.9 1.1-19 0.8-6.6 2.2-17.4 3.1-24 0.9-6.6 2.5-18.7 3.6-27 1.1-8.2 2.7-20.9 3.4-28 0.8-7.1 1.5-15.2 1.5-18 0-2.7-0.9-8.3-2-12.2-1.1-4-3.2-9.7-4.6-12.5-1.5-2.9-4.8-8-7.4-11.3-2.6-3.3-7.6-8.1-11.1-10.6-3.5-2.5-8.7-5.5-11.4-6.6-2.8-1.1-9.5-3.4-15-5.1-5.5-1.7-16.1-4.7-23.5-6.7-7.4-2.1-17.3-4.8-22-6-4.7-1.2-13.7-3.7-20-5.5-6.3-1.8-13.3-3.7-15.5-4.2-2.2-0.5-7.1-2.4-11-4.2-3.9-1.7-9.6-5.2-12.8-7.6-3.2-2.5-8.8-8.3-12.5-13-3.8-4.7-11.2-14.3-16.7-21.5-5.4-7.2-16.6-21.7-24.9-32.4-8.3-10.6-18-22.1-21.6-25.5-3.6-3.3-9.5-7.6-13-9.3-3.6-1.8-9.2-3.9-12.5-4.7-3.3-0.8-8.5-1.6-11.5-1.8-3-0.2-6.9-0.2-8.5 0z"/><path class="c" d="m490 301.9c-1.9 0.5-5.2 1.6-7.3 2.5-2 0.9-35.1 25.1-73.5 53.9-38.3 28.8-70.9 53.9-72.3 55.8-1.4 1.9-3.4 5-4.4 6.9-1 1.9-2.6 6-3.6 9-1.7 5.2-1.9 11.3-1.9 108.5 0 97.2 0.2 103.3 1.9 108.5 1 3 2.7 7.3 3.8 9.5 1.1 2.2 4.4 6.3 7.2 9 2.9 2.8 7.4 6.2 9.9 7.7 2.6 1.5 7.4 3.4 10.7 4.3 5.2 1.4 12.7 1.6 55 1.3l49-0.3c7.3-4.9 9.8-7.8 11.4-11l2.6-4.9 0.5-113.6h43l0.5 115.5c4.3 6.6 7.4 9.7 9.7 11.3l4.2 2.7c97.1 0.5 99.4 0.4 105.6-1.6 3.6-1.1 8.5-3.3 11-4.9 2.5-1.5 6.4-4.9 8.8-7.4 2.3-2.5 5.2-6.5 6.3-8.8 1.2-2.4 3-6.8 4-9.8 1.7-5.2 1.9-11.3 1.9-107.7 0-56.6-0.4-103.1-0.9-104-0.5-1-1.6-4.3-2.5-7.3-1-3-3.6-8.1-5.9-11.2-3.5-4.7-15.5-14.2-73-57.2-37.8-28.4-71.1-52.8-74-54.2-4.3-2.2-6.9-2.7-14.7-3-5.2-0.2-11.1 0.1-13 0.5z"/><path class="b" d="m435.5 392.4l-64 48.1-0.5 195.5 64.5-0.5 1-116.2c4.9-6.9 7.9-9.4 11-10.9l5-2.4c88.6 0 96 0.2 99.3 1.6 2 0.8 5 2.7 6.5 4.2 1.6 1.5 3.6 4.1 4.5 5.7 1.5 2.7 1.8 9.4 2.2 60.5l0.5 57.5 64.5 0.5v-195c-99.6-74.6-128.9-96.4-129.5-96.5-0.6-0.2-29.8 21.4-65 47.9z"/></svg>