<svg width="224.23" height="221" aria-label="Ecosia logo" viewBox="0 0 224.23 221" xmlns="http://www.w3.org/2000/svg"><path d="M129.48 32.72c-11.858-2.286-24.482-2.7-36.229.1-11.259 2.683-22.147 8.16-31.031 15.578-9.382 7.833-16.919 16.729-21.735 27.323-5.923 13.03-9.548 24.469-7.743 42.235 1.158 11.407 3.91 19.647 8.445 28.434 27.514 53.317 91.394 54.16 122.81 23.719 11.38-11.027 19.352-18.908 25.124-39.671 2.767-9.954 3.16-20.605 2.354-30.905-.264-3.369-1.108-6.715-2.333-9.864-4.587-11.79-9.644-24.114-18.521-33.127-11.12-11.29-28.357-21.262-41.14-23.822z" fill="#d9e559"/><path d="M97.72 188.973c-18.104-3.354-34.398-12.867-46.637-27.228-5.202-6.103-5.368-8.465-.765-10.845 3.24-1.676 4.902-4.268 4.902-7.649 0-1.281.9-4.01 2-6.062s2-4.842 2-6.2c0-2.722-1.335-3.668-8.63-6.114-5.33-1.787-8.37-3.994-8.37-6.074 0-.737-2.065-2.311-4.59-3.498s-4.854-2.848-5.178-3.692c-1.048-2.73 1.664-19.749 4.35-27.309 2.718-7.645 6.955-15.833 8.832-17.066.597-.392 1.086-1.191 1.086-1.775s2.213-3.74 4.919-7.013c4.138-5.008 5.296-5.857 7.305-5.353 1.638.411 3.076-.046 4.582-1.456 2.265-2.121 9.18-5.379 13.863-6.53 1.468-.361 4.9-3.16 7.627-6.22 4.835-5.425 5.155-5.598 12.831-6.966 13.798-2.46 28.188-1.315 41.356 3.289 5.165 1.806 5.354 1.987 3.25 3.113-2.295 1.228-3.094 4.125-1.138 4.125.603 0 2.338-.885 3.856-1.966 2.447-1.742 2.976-1.8 4.655-.519 2.642 2.019.668 3.145-7.041 4.019-3.336.377-7.545 1.296-9.352 2.04-1.808.745-3.05.972-2.761.504 1.073-1.737-2.62-3.322-8.913-3.827-7.032-.565-8.665.085-15.225 6.054-3.663 3.334-4.135 5.136-1.7 6.498 1.237.693 1.374 1.346.588 2.8-1.281 2.37-7.44 6.18-6.646 4.11.712-1.856-2.91-6.23-4.398-5.311-1.207.746-.61 5.166.971 7.19.47.6.52 1.429.112 1.84s-.741 1.714-.741 2.893c0 1.6-.762 2.279-3 2.67-2.743.48-3 .865-3 4.505 0 3.613.276 4.04 3 4.622 2.928.626 2.936.644.344.76-1.967.087-3.655 1.456-6.5 5.271-2.114 2.834-4.41 5.906-5.101 6.827-.692.92-1.494 4.621-1.784 8.224-.504 6.258-.378 6.746 2.82 10.923l3.228 3.884 8.556.495c7.345.424 12.936 1.274 12.936 5.317 0 1.515.91 4.536 2.02 6.715 1.618 3.17 1.897 5.061 1.4 9.464-.886 7.842 4.081 23.387 7.856 24.585 3.072.975 8.251-.446 10.395-2.853 2.665-2.99 6.33-9.508 6.33-11.257 0-.774 1.406-3.01 3.125-4.968 2.977-3.391 3.095-3.843 2.457-9.477l-.67-5.916 5.094-5.623c7.71-8.514 8.803-13.04 3.302-13.671-2.693-.31-2.616-.417 1.85-2.618 8.12-4 11.689-8.957 8.641-12.005-.933-.933-.478-1.2 2.05-1.2 6.457 0 11.73 4.405 14.647 12.236.97 2.605 2.374 5.243 3.12 5.862 2.04 1.693 4.383.3 4.383-2.605 0-2.763 7.298-11.528 8.553-10.272 1.395 1.395 1.68 14.753.49 22.893-6.569 44.927-49.174 75.63-93.543 67.41zm50.972-42.757c1.507-4.371 1.696-5.998.801-6.892-2.198-2.199-6.057 1.504-6.812 6.536-1.318 8.79 3.016 9.046 6.011.356M92.72 60.436c0-2.143-2.906-1.834-3.327.355-.257 1.336.15 1.743 1.486 1.486 1.013-.195 1.841-1.023 1.841-1.841m-7-10.986c1.141-1.846-.49-3.076-2.589-1.952-1.082.579-1.703 1.48-1.38 2.002.771 1.248 3.186 1.217 3.969-.05m29.25-11.63c3.617-.97 2.768-3.37-1.191-3.37-3.518 0-5.162 1.216-4.059 3 .704 1.14 2.029 1.233 5.25.37m24.497 65.38c-1.432-1.794-4.663-8.446-3.522-7.25 1.395 1.462 5.517 8.5 4.979 8.5-.253 0-.908-.562-1.457-1.25m12.003-10.781c-1.238-.497-2.25-1.102-2.25-1.343 0-.744 3.998.562 4.575 1.495.636 1.029.609 1.027-2.325-.152m-42.02-10.341c-2.953-2.592-3.81-2.827-8.787-2.415l-5.516.458 3.226-3.328c4.37-4.51 6.058-4.84 10.928-2.147 3.127 1.73 4.282 1.983 4.639 1.013.325-.884 1.273-.43 3.004 1.437 2.437 2.631 2.579 2.661 3.914.835 1.346-1.84 1.428-1.832 2.93.313.85 1.213 2.533 2.213 3.74 2.221 3.102.022 5.085 1.518 4.395 3.317-.478 1.246-2.337 1.5-9.895 1.351-8.696-.171-9.52-.371-12.578-3.055m37.964-4.894c-.568-.685-1.325-2.593-1.681-4.24-.628-2.895-.595-2.928.992-.994 2.65 3.228 3.576 5.332 2.611 5.928-.489.303-1.354-.01-1.922-.695M126.47 72.2c.237-.71 2.072-1.25 4.25-1.25s4.013.54 4.25 1.25c.294.881-.961 1.25-4.25 1.25s-4.544-.369-4.25-1.25m-13.361-15.5c.498-.962 1.33-2.866 1.85-4.23l.945-2.479 1.238 2.313c1.04 1.942.96 2.62-.497 4.23-2.254 2.49-4.8 2.61-3.536.166" fill="#59b0d4"/><path d="M112.12 0A112.12 110.5 0 0 0 0 110.5 112.12 110.5 0 0 0 112.12 221a112.12 110.5 0 0 0 112.12-110.5A112.12 110.5 0 0 0 112.12 0m-.687 13.061a97.659 98.428 0 0 1 97.66 98.43 97.659 98.428 0 0 1-97.66 98.428 97.659 98.428 0 0 1-97.658-98.428 97.659 98.428 0 0 1 97.658-98.43" fill="#e4774f"/></svg>