<svg width="501" height="501" viewBox="0 0 501 501" fill="none" xmlns="http://www.w3.org/2000/svg"><g clip-path="url(#a)"><path d="M106.89 179.149c2.083-53.999 47.48-97.692 102.874-97.692 53.311 0 97.041 39.984 102.456 91.509 27.488.412 54.56.824 82.05 2.061C389.27 78.159 308.473.666 209.764.666 108.14.666 25.258 82.694 25.258 183.27v3.71c27.072-3.298 54.56-5.771 81.632-7.832" fill="#6677fb"/><path d="m353.043 297.863.832-1.235c21.243-26.38 34.153-56.884 38.735-89.86-27.905 0-55.395 0-83.3.824-11.245 44.518-51.645 77.081-99.54 77.081-42.899 0-79.967-26.38-95.377-63.478-27.489 2.885-54.977 6.595-82.465 10.717 21.657 77.081 93.294 133.553 177.842 133.553 27.071 0 53.728-5.77 78.3-17.312l1.25-.413.833.825L404.27 486.24c7.915 9.48 19.16 14.84 31.655 14.84 9.578 0 18.743-3.3 25.823-9.07 8.33-7.007 13.742-16.487 14.577-27.205.833-10.717-2.082-21.022-9.165-29.677z" fill="#202c46"/></g><defs><clipPath id="a"><path fill="#fff" d="M.258.666h500v500h-500z"/></clipPath></defs></svg>