<svg width="268" height="288" viewBox="0 0 268 288" fill="none" xmlns="http://www.w3.org/2000/svg"><path d="m257.182 154 10.445 82.211C271.118 263.693 249.669 288 221.925 288H46.075C18.33 288-3.118 263.693.373 236.211L10.818 154z" fill="url(#a)"/><path d="m257.182 154 10.445-82.21C271.118 44.306 249.669 20 221.925 20H46.075C18.33 20-3.118 44.307.373 71.79L10.818 154z" fill="url(#b)"/><path d="m257.182 154 10.445-82.21C271.118 44.306 249.669 20 221.925 20H46.075C18.33 20-3.118 44.307.373 71.79L10.818 154z" fill="url(#c)"/><path d="m257.182 154 10.445-82.21C271.118 44.306 249.669 20 221.925 20H46.075C18.33 20-3.118 44.307.373 71.79L10.818 154z" fill="url(#d)"/><path d="M194.089 0c18.883 0 35.586 9.319 45.749 23.602A46 46 0 0 0 221.925 20H46.075c-7.542 0-14.618 1.799-20.854 4.967C35.274 9.916 52.43 0 71.908 0z" fill="url(#e)"/><path d="M97.67 220q-11.153 0-19.182-3.617-8.03-3.617-13.473-9.674-5.442-6.149-8.03-12.659l-1.086-2.831a4 4 0 0 1 2.246-5.146l8.9-3.568a4 4 0 0 1 5.188 2.191l.277.674q1.873 4.25 5.085 8.499a23.8 23.8 0 0 0 7.852 6.601q4.64 2.44 11.687 2.441 11.242 0 17.666-6.149 6.424-6.239 6.424-16.365 0-10.58-6.692-16.276-6.692-5.786-18.468-5.786h-8.759a4 4 0 0 1-4-4v-8.004a4 4 0 0 1 4-4h7.51q10.349 0 16.505-5.516 6.156-5.515 6.156-14.196 0-8.86-5.531-14.195-5.442-5.425-15.257-5.425-5.531 0-9.635 1.808a20.8 20.8 0 0 0-6.96 5.063q-2.855 3.255-5.174 7.324l-.41.747a4 4 0 0 1-5.237 1.683l-7.969-3.823a4 4 0 0 1-1.834-5.421l.996-1.956q2.944-5.697 8.298-11.122 5.353-5.425 12.49-8.318Q88.391 86 97.848 86q17.399 0 27.48 9.223 10.17 9.132 10.171 24.141 0 10.398-5.175 18.174-5.085 7.776-14.275 10.851v.271q10.974 2.894 17.487 11.664 6.602 8.77 6.602 20.796 0 17.18-11.688 28.03Q116.763 220 97.67 220m90.3-2.26a4 4 0 0 1-4-4V113.216l-20.205 14.814a4 4 0 0 1-5.677-.983l-4.87-7.19a4 4 0 0 1 .962-5.48l35.163-25.534a4 4 0 0 1 2.35-.763h7.013a4 4 0 0 1 4 4v121.66a4 4 0 0 1-4 4z" fill="#fff"/><defs><linearGradient id="a" x1="134" y1="154" x2="134" y2="288" gradientUnits="userSpaceOnUse"><stop stop-color="#4598ff"/><stop offset="1" stop-color="#3386fc"/></linearGradient><linearGradient id="b" x1="134" y1="20" x2="134" y2="154" gradientUnits="userSpaceOnUse"><stop stop-color="#a5a7fe"/><stop offset=".505" stop-color="#3f92ff"/><stop offset="1" stop-color="#3b90fb"/></linearGradient><linearGradient id="c" x1="-6.207" y1="86.568" x2="274.207" y2="86.568" gradientUnits="userSpaceOnUse"><stop stop-color="#4091fe"/><stop offset=".194" stop-color="#4091fe" stop-opacity="0"/></linearGradient><linearGradient id="d" x1="274.207" y1="86" x2="-6.207" y2="86" gradientUnits="userSpaceOnUse"><stop stop-color="#4091fe"/><stop offset=".194" stop-color="#4091fe" stop-opacity="0"/></linearGradient><linearGradient id="e" x1="132.529" y1="0" x2="132.529" y2="24.967" gradientUnits="userSpaceOnUse"><stop stop-color="#bae2fb"/><stop offset="1" stop-color="#bfdaf5"/></linearGradient></defs></svg>