<svg width="226" height="310" viewBox="0 0 226 310" fill="none" xmlns="http://www.w3.org/2000/svg"><path d="M0 34C0 15.222 15.222 0 34 0h86l100.788 101.738A18 18 0 0 1 226 114.406V276c0 18.778-15.222 34-34 34H34c-18.778 0-34-15.222-34-34z" fill="url(#a)"/><path d="M0 34C0 15.222 15.222 0 34 0h86l100.788 101.738A18 18 0 0 1 226 114.406V276c0 18.778-15.222 34-34 34H34c-18.778 0-34-15.222-34-34z" fill="url(#b)"/><path d="M211.141 92H144c-13.255 0-24-10.745-24-24V0z" fill="#76bbff"/><path d="M131 237c6.075 0 11 4.925 11 11s-4.925 11-11 11H67c-6.075 0-11-4.925-11-11s4.925-11 11-11zm28-51c6.075 0 11 4.925 11 11s-4.925 11-11 11H67c-6.075 0-11-4.925-11-11s4.925-11 11-11z" fill="#fffcff"/><defs><linearGradient id="a" x1="226" y1="0" x2="0" y2="310" gradientUnits="userSpaceOnUse"><stop offset=".2" stop-color="#2c83fc"/><stop offset=".4" stop-color="#3185ff"/><stop offset=".799" stop-color="#a7a7ff"/></linearGradient><linearGradient id="b" x1="0" y1="156" x2="226" y2="156" gradientUnits="userSpaceOnUse"><stop stop-color="#3588ff"/><stop offset=".194" stop-color="#3185ff" stop-opacity="0"/></linearGradient></defs></svg>