<svg width="310" height="244" viewBox="0 0 310 244" fill="none" xmlns="http://www.w3.org/2000/svg"><path d="M0 76C0 34.026 34.026 0 76 0h114c19.882 0 36 16.118 36 36v172c0 19.882-16.118 36-36 36H36c-19.882 0-36-16.118-36-36z" fill="url(#a)"/><g clip-path="url(#b)" data-figma-skip-parse="true"><g transform="matrix(0 .259 -.21026 0 226 122)" fill="url(#c)" shape-rendering="crispEdges"><path d="M0 0h478.765v1084.35H0z"/><path d="M0 0h478.765v-1084.35H0z"/><path d="M0 0h-478.765v1084.35H0z"/><path d="M0 0h-478.765v-1084.35H0z"/></g></g><path d="M0 76C0 34.026 34.026 0 76 0h114c19.882 0 36 16.118 36 36v172c0 19.882-16.118 36-36 36H36c-19.882 0-36-16.118-36-36z" data-figma-gradient-fill="{&quot;type&quot;:&quot;GRADIENT_DIAMOND&quot;,&quot;stops&quot;:[{&quot;color&quot;:{&quot;r&quot;:0.99215686321258545,&quot;g&quot;:0.7294117808341980,&quot;b&quot;:0.85098040103912354,&quot;a&quot;:1.0},&quot;position&quot;:0.14163926243782043},{&quot;color&quot;:{&quot;r&quot;:1.0,&quot;g&quot;:0.90062564611434937,&quot;b&quot;:0.42307692766189575,&quot;a&quot;:0.0},&quot;position&quot;:1.0}],&quot;stopsVar&quot;:[{&quot;color&quot;:{&quot;r&quot;:0.99215686321258545,&quot;g&quot;:0.7294117808341980,&quot;b&quot;:0.85098040103912354,&quot;a&quot;:1.0},&quot;position&quot;:0.14163926243782043},{&quot;color&quot;:{&quot;r&quot;:1.0,&quot;g&quot;:0.90062564611434937,&quot;b&quot;:0.42307692766189575,&quot;a&quot;:0.0},&quot;position&quot;:1.0}],&quot;transform&quot;:{&quot;m00&quot;:2.6962408810504712e-05,&quot;m01&quot;:-420.52777099609375,&quot;m02&quot;:436.26388549804688,&quot;m10&quot;:518.0,&quot;m11&quot;:2.1888881747145206e-05,&quot;m12&quot;:-137.00001525878906},&quot;opacity&quot;:1.0,&quot;blendMode&quot;:&quot;NORMAL&quot;,&quot;visible&quot;:true}"/><path d="M274.859 41.454C289.372 30.647 310 41.004 310 59.1v135.8c0 18.095-20.628 28.451-35.141 17.643L226 176.153v-98.31z" fill="url(#d)"/><circle cx="55" cy="189" r="25" fill="#fff"/><defs><linearGradient id="a" x1="226" y1="0" x2="0" y2="244" gradientUnits="userSpaceOnUse"><stop stop-color="#fdde16"/><stop offset=".4" stop-color="#ffdb13"/><stop offset="1" stop-color="#fec602"/></linearGradient><linearGradient id="c" x1="0" y1="0" x2="500" y2="500" gradientUnits="userSpaceOnUse"><stop offset=".142" stop-color="#fdbad9"/><stop offset="1" stop-color="#ffe66c" stop-opacity="0"/></linearGradient><linearGradient id="d" x1="310" y1="38" x2="212" y2="101" gradientUnits="userSpaceOnUse"><stop stop-color="#fcaf00"/><stop offset="1" stop-color="#fea100"/></linearGradient><clipPath id="b"><path d="M0 76C0 34.026 34.026 0 76 0h114c19.882 0 36 16.118 36 36v172c0 19.882-16.118 36-36 36H36c-19.882 0-36-16.118-36-36z"/></clipPath></defs></svg>