<svg xmlns="http://www.w3.org/2000/svg" viewBox="0 0 469.336 469.336"><path style="fill:#f03;fill-opacity:1;fill-rule:nonzero;stroke:none" d="M490.668 256c0-129.602-105.066-234.668-234.668-234.668S21.332 126.398 21.332 256 126.398 490.668 256 490.668 490.668 385.602 490.668 256m0 0" transform="translate(-21.332 -21.332)"/><path style="fill:#fff;fill-opacity:1;fill-rule:nonzero;stroke:none" d="M256 133.332c67.625 0 122.668 55.043 122.668 122.668S323.625 378.668 256 378.668 133.332 323.625 133.332 256 188.375 133.332 256 133.332M256 112c-79.574 0-144 64.426-144 144s64.426 144 144 144 144-64.426 144-144-64.426-144-144-144m0 0" transform="translate(-21.332 -21.332)"/><path style="fill:#fff;fill-opacity:1;fill-rule:nonzero;stroke:none" d="M213.332 320 320 256l-106.668-64Zm0 0" transform="translate(-21.332 -21.332)"/></svg>