<svg xmlns="http://www.w3.org/2000/svg" width="345" height="204" viewBox="0 0 313.233 216.023" xml:space="preserve"><path d="M210.532 221.299s98.125 0 122.464-6.481c13.705-3.672 24.011-14.258 27.628-27.327 6.689-23.978 6.689-74.42 6.689-74.42s0-50.117-6.689-73.88c-3.617-13.393-13.923-23.762-27.628-27.326-24.34-6.59-122.464-6.59-122.464-6.59s-97.906 0-122.136 6.59C74.91 15.429 64.386 25.798 60.548 39.19c-6.469 23.763-6.469 73.88-6.469 73.88s0 50.442 6.469 74.42c3.837 13.07 14.362 23.655 27.848 27.327 24.23 6.48 122.136 6.48 122.136 6.48" fill="#f03" style="stroke-width:.0208149" transform="translate(-54.08 -5.276)"/><path d="m259.301 113.287-81.008-45.905v91.81z" fill="#fff" style="stroke-width:.0208149" transform="translate(-54.08 -5.276)"/></svg>